<svg width="79" height="22" viewBox="0 0 79 22" fill="none" xmlns="http://www.w3.org/2000/svg">
<path d="M5.10335 5.79027L4.52643 4.40566L5.10335 5.79027ZM31.9479 7.68094L32.7132 6.39086L31.9479 7.68094ZM36.4652 10.3607L35.6999 11.6508L36.4652 10.3607ZM61.7039 12.8671L62.2005 14.2825L61.7039 12.8671ZM78.352 8.14967C78.7108 7.40297 78.3964 6.50679 77.6497 6.14799L65.4816 0.300983C64.7349 -0.0578182 63.8387 0.256632 63.4799 1.00333C63.1211 1.75002 63.4355 2.6462 64.1822 3.005L74.9983 8.20234L69.801 19.0184C69.4422 19.7651 69.7566 20.6613 70.5033 21.0201C71.25 21.3789 72.1462 21.0645 72.505 20.3178L78.352 8.14967ZM1.57692 8.88461L5.68027 7.17489L4.52643 4.40566L0.423077 6.11538L1.57692 8.88461ZM31.1826 8.97102L35.6999 11.6508L37.2305 9.07062L32.7132 6.39086L31.1826 8.97102ZM62.2005 14.2825L77.4966 8.9154L76.5034 6.0846L61.2072 11.4517L62.2005 14.2825ZM35.6999 11.6508C43.71 16.4026 53.4123 17.366 62.2005 14.2825L61.2072 11.4517C53.256 14.2416 44.4777 13.3698 37.2305 9.07062L35.6999 11.6508ZM5.68027 7.17489C13.9878 3.71341 23.4422 4.37929 31.1826 8.97102L32.7132 6.39086C24.1581 1.31579 13.7084 0.579817 4.52643 4.40566L5.68027 7.17489Z" fill="black"/>
</svg>
