<svg width="81" height="22" viewBox="0 0 81 22" fill="none" xmlns="http://www.w3.org/2000/svg">
<path d="M5.55133 16.1863L6.12933 14.8021L5.55133 16.1863ZM32.4423 14.2898L33.2089 15.5792L32.4423 14.2898ZM37.6962 11.1663L36.9296 9.87696L37.6962 11.1663ZM62.9791 8.652L62.4815 10.0671L62.9791 8.652ZM80.3525 13.637C80.7107 14.3839 80.3957 15.2799 79.6487 15.6382L67.4766 21.4768C66.7297 21.8351 65.8337 21.52 65.4754 20.7731C65.1171 20.0262 65.4322 19.1302 66.1792 18.7719L76.9988 13.582L71.8089 2.76235C71.4506 2.01541 71.7657 1.11944 72.5126 0.761152C73.2596 0.402864 74.1555 0.717928 74.5138 1.46487L80.3525 13.637ZM1.578 12.9015L6.12933 14.8021L4.97332 17.5704L0.421997 15.6699L1.578 12.9015ZM31.6758 13.0005L36.9296 9.87696L38.4627 12.4556L33.2089 15.5792L31.6758 13.0005ZM63.4767 7.23694L79.4976 12.8707L78.5024 15.7008L62.4815 10.0671L63.4767 7.23694ZM36.9296 9.87696C44.9508 5.10818 54.6735 4.14129 63.4767 7.23694L62.4815 10.0671C54.5167 7.26624 45.7199 8.14104 38.4627 12.4556L36.9296 9.87696ZM6.12933 14.8021C14.4503 18.2768 23.9248 17.6086 31.6758 13.0005L33.2089 15.5792C24.642 20.6724 14.1702 21.4109 4.97332 17.5704L6.12933 14.8021Z" fill="black"/>
</svg>
