<svg width="95" height="81" viewBox="0 0 95 81" fill="none" xmlns="http://www.w3.org/2000/svg">
<path d="M86.3221 14.6666L87.6754 15.3136L86.3221 14.6666ZM65.0586 31.161L64.7684 29.6894L65.0586 31.161ZM42.162 35.675L42.4521 37.1467L42.4521 37.1467L42.162 35.675ZM21.6844 50.6397L20.3704 49.9163L21.6844 50.6397ZM4.74501 79.2082C4.97565 80.0039 5.80764 80.4619 6.60331 80.2313L19.5696 76.4729C20.3653 76.2423 20.8233 75.4103 20.5927 74.6146C20.3621 73.8189 19.5301 73.3609 18.7344 73.5915L7.20881 76.9323L3.86802 65.4067C3.63738 64.611 2.80539 64.153 2.00972 64.3836C1.21404 64.6142 0.755984 65.4462 0.986617 66.2419L4.74501 79.2082ZM91.3205 0.733079L84.9688 14.0197L87.6754 15.3136L94.0271 2.02698L91.3205 0.733079ZM64.7684 29.6894L41.8718 34.2034L42.4521 37.1467L65.3487 32.6327L64.7684 29.6894ZM20.3704 49.9163L4.8717 78.0671L7.49972 79.514L22.9984 51.3631L20.3704 49.9163ZM41.8718 34.2034C32.7342 36.0048 24.8622 41.7575 20.3704 49.9163L22.9984 51.3631C27.0624 43.9814 34.1847 38.7766 42.4521 37.1467L41.8718 34.2034ZM84.9688 14.0197C81.0871 22.1394 73.5983 27.9486 64.7684 29.6894L65.3487 32.6327C75.108 30.7087 83.3852 24.288 87.6754 15.3136L84.9688 14.0197Z" fill="black"/>
</svg>
