<svg width="117" height="117" viewBox="0 0 117 117" fill="none" xmlns="http://www.w3.org/2000/svg">
<g clip-path="url(#clip0_303_38)">
<path d="M99.9375 117H17.0625C7.65375 117 0 109.346 0 99.9375V17.0625C0 7.65375 7.65375 0 17.0625 0H99.9375C109.346 0 117 7.65375 117 17.0625V99.9375C117 109.346 109.346 117 99.9375 117ZM17.0625 4.875C10.3447 4.875 4.875 10.3447 4.875 17.0625V99.9375C4.875 106.655 10.3447 112.125 17.0625 112.125H99.9375C106.655 112.125 112.125 106.655 112.125 99.9375V17.0625C112.125 10.3447 106.655 4.875 99.9375 4.875H17.0625Z" fill="black"/>
<path d="M70.6875 48.75H17.0625C13.0309 48.75 9.75 45.4691 9.75 41.4375V17.0625C9.75 13.0309 13.0309 9.75 17.0625 9.75H70.6875C74.7191 9.75 78 13.0309 78 17.0625V41.4375C78 45.4691 74.7191 48.75 70.6875 48.75ZM17.0625 14.625C15.717 14.625 14.625 15.717 14.625 17.0625V41.4375C14.625 42.783 15.717 43.875 17.0625 43.875H70.6875C72.033 43.875 73.125 42.783 73.125 41.4375V17.0625C73.125 15.717 72.033 14.625 70.6875 14.625H17.0625Z" fill="black"/>
<path d="M21.9375 78H17.0625C13.0309 78 9.75 74.7191 9.75 70.6875V65.8125C9.75 61.7809 13.0309 58.5 17.0625 58.5H21.9375C25.9691 58.5 29.25 61.7809 29.25 65.8125V70.6875C29.25 74.7191 25.9691 78 21.9375 78ZM17.0625 63.375C15.717 63.375 14.625 64.467 14.625 65.8125V70.6875C14.625 72.033 15.717 73.125 17.0625 73.125H21.9375C23.283 73.125 24.375 72.033 24.375 70.6875V65.8125C24.375 64.467 23.283 63.375 21.9375 63.375H17.0625Z" fill="black"/>
<path d="M46.3125 78H41.4375C37.4059 78 34.125 74.7191 34.125 70.6875V65.8125C34.125 61.7809 37.4059 58.5 41.4375 58.5H46.3125C50.3441 58.5 53.625 61.7809 53.625 65.8125V70.6875C53.625 74.7191 50.3441 78 46.3125 78ZM41.4375 63.375C40.092 63.375 39 64.467 39 65.8125V70.6875C39 72.033 40.092 73.125 41.4375 73.125H46.3125C47.658 73.125 48.75 72.033 48.75 70.6875V65.8125C48.75 64.467 47.658 63.375 46.3125 63.375H41.4375Z" fill="black"/>
<path d="M70.6875 78H65.8125C61.7809 78 58.5 74.7191 58.5 70.6875V65.8125C58.5 61.7809 61.7809 58.5 65.8125 58.5H70.6875C74.7191 58.5 78 61.7809 78 65.8125V70.6875C78 74.7191 74.7191 78 70.6875 78ZM65.8125 63.375C64.467 63.375 63.375 64.467 63.375 65.8125V70.6875C63.375 72.033 64.467 73.125 65.8125 73.125H70.6875C72.033 73.125 73.125 72.033 73.125 70.6875V65.8125C73.125 64.467 72.033 63.375 70.6875 63.375H65.8125Z" fill="black"/>
<path d="M21.9375 102.375H17.0625C13.0309 102.375 9.75 99.0941 9.75 95.0625V90.1875C9.75 86.1559 13.0309 82.875 17.0625 82.875H21.9375C25.9691 82.875 29.25 86.1559 29.25 90.1875V95.0625C29.25 99.0941 25.9691 102.375 21.9375 102.375ZM17.0625 87.75C15.717 87.75 14.625 88.842 14.625 90.1875V95.0625C14.625 96.408 15.717 97.5 17.0625 97.5H21.9375C23.283 97.5 24.375 96.408 24.375 95.0625V90.1875C24.375 88.842 23.283 87.75 21.9375 87.75H17.0625Z" fill="black"/>
<path d="M46.3125 102.375H41.4375C37.4059 102.375 34.125 99.0941 34.125 95.0625V90.1875C34.125 86.1559 37.4059 82.875 41.4375 82.875H46.3125C50.3441 82.875 53.625 86.1559 53.625 90.1875V95.0625C53.625 99.0941 50.3441 102.375 46.3125 102.375ZM41.4375 87.75C40.092 87.75 39 88.842 39 90.1875V95.0625C39 96.408 40.092 97.5 41.4375 97.5H46.3125C47.658 97.5 48.75 96.408 48.75 95.0625V90.1875C48.75 88.842 47.658 87.75 46.3125 87.75H41.4375Z" fill="black"/>
<path d="M70.6875 102.375H65.8125C61.7809 102.375 58.5 99.0941 58.5 95.0625V90.1875C58.5 86.1559 61.7809 82.875 65.8125 82.875H70.6875C74.7191 82.875 78 86.1559 78 90.1875V95.0625C78 99.0941 74.7191 102.375 70.6875 102.375ZM65.8125 87.75C64.467 87.75 63.375 88.842 63.375 90.1875V95.0625C63.375 96.408 64.467 97.5 65.8125 97.5H70.6875C72.033 97.5 73.125 96.408 73.125 95.0625V90.1875C73.125 88.842 72.033 87.75 70.6875 87.75H65.8125Z" fill="black"/>
<path d="M104.812 92.625H85.3125C83.967 92.625 82.875 91.533 82.875 90.1875V80.4375C82.875 79.092 83.967 78 85.3125 78H104.812C106.158 78 107.25 79.092 107.25 80.4375V90.1875C107.25 91.533 106.158 92.625 104.812 92.625ZM87.75 87.75H102.375V82.875H87.75V87.75Z" fill="black"/>
<path d="M104.812 43.875H85.3125C83.967 43.875 82.875 42.783 82.875 41.4375V31.6875C82.875 30.342 83.967 29.25 85.3125 29.25H104.812C106.158 29.25 107.25 30.342 107.25 31.6875V41.4375C107.25 42.783 106.158 43.875 104.812 43.875ZM87.75 39H102.375V34.125H87.75V39Z" fill="black"/>
</g>
<defs>
<clipPath id="clip0_303_38">
<rect width="117" height="117" fill="white"/>
</clipPath>
</defs>
</svg>
