<svg width="26" height="15" viewBox="0 0 26 15" fill="none" xmlns="http://www.w3.org/2000/svg">
<g clip-path="url(#clip0_303_422)">
<path d="M0 0H26V15H0V0Z" fill="#10338C"/>
<path d="M11.2616 7.48682C11.2768 7.47366 11.2869 7.46051 11.3021 7.44735C11.292 7.46051 11.2768 7.47366 11.2616 7.48682ZM9.52825 9.32454L10.0858 10.3289L11.3376 10.0789L10.7801 11.0789L11.7887 11.7719L10.5318 12.0175L10.5368 13.1316L9.52825 12.4342L8.52474 13.1316L8.52981 12.0175L7.27289 11.7719L8.28146 11.0789L7.71889 10.0789L8.97581 10.3289L9.52825 9.32454ZM19.5583 10.5745L19.8218 11.0526L20.4199 10.9342L20.1513 11.4123L20.6327 11.7412L20.0347 11.8552V12.3903L19.5583 12.057L19.0768 12.3903L19.0819 11.8552L18.4838 11.7412L18.9653 11.4123L18.6967 10.9342L19.2947 11.0526L19.5583 10.5745ZM17.0951 5.48682L17.3587 5.96489L17.9567 5.84647L17.6881 6.32454L18.1696 6.65349L17.5715 6.77191V7.30261L17.0951 6.96928L16.6136 7.30261L16.6187 6.77191L16.0156 6.65349L16.4971 6.32454L16.2284 5.84647L16.8265 5.96489L17.0951 5.48682ZM19.5583 2.58331L19.8218 3.06138L20.4199 2.94296L20.1513 3.42103L20.6327 3.74998L20.0347 3.8684V4.3991L19.5583 4.06577L19.0768 4.3991L19.0819 3.8684L18.4838 3.74998L18.9653 3.42103L18.6967 2.94296L19.2947 3.06138L19.5583 2.58331ZM21.7123 4.76314L21.9758 5.24121L22.5739 5.12279L22.3052 5.60086L22.7867 5.9298L22.1887 6.04384V6.57893L21.7123 6.24559L21.2308 6.57893V6.04384L20.6327 5.9298L21.1142 5.60086L20.8456 5.12279L21.4436 5.24121L21.7123 4.76314ZM20.1715 7.30261L20.3793 7.85963H21.0534L20.506 8.20174L20.7189 8.75875L20.1715 8.41226L19.6242 8.75875L19.832 8.20174L19.2897 7.85963H19.9637L20.1715 7.30261Z" fill="white"/>
<path d="M12.9138 0V1.34211L10.6281 2.44298H12.9138V5.04386H9.91852L12.9138 6.48246V7.48684H11.5606L7.83547 5.69298V7.48684H5.01754V5.35526L0.587911 7.48684H-0.0608215V6.14474L2.23002 5.04386H-0.0608215V2.44298H2.9345L-0.0608215 1V0H1.29239L5.01754 1.78947V0H7.83547V2.13158L12.2702 0H12.9138Z" fill="white"/>
<path d="M7.23742 0H5.61559V3.03947H-0.0608215V4.44298H5.61559V7.48684H7.23742V4.44298H12.9138V3.03947H7.23742V0Z" fill="#D80027"/>
<path d="M7.83545 5.04388L12.9138 7.48687V6.79388L9.27483 5.04388H7.83545Z" fill="#0052B4"/>
<path d="M7.83545 5.04388L12.9138 7.48687V6.79388L9.27483 5.04388H7.83545Z" fill="white"/>
<path d="M7.83547 5.04388L12.9138 7.48687V6.79388L9.27485 5.04388H7.83547ZM3.58323 5.04388L-0.0608215 6.79388V7.48687L5.01754 5.04388H3.58323Z" fill="#D80027"/>
<path d="M5.01754 2.44298L-0.0608215 0V0.688596L3.58323 2.44298H5.01754Z" fill="#0052B4"/>
<path d="M5.01754 2.44298L-0.0608215 0V0.688596L3.58323 2.44298H5.01754Z" fill="white"/>
<path d="M5.01754 2.44298L-0.0608215 0V0.688596L3.58323 2.44298H5.01754ZM9.27485 2.44298L12.9138 0.688596V0L7.83547 2.44298H9.27485Z" fill="#D80027"/>
</g>
<defs>
<clipPath id="clip0_303_422">
<rect width="26" height="15" fill="white"/>
</clipPath>
</defs>
</svg>
