<svg width="26" height="15" viewBox="0 0 26 15" fill="none" xmlns="http://www.w3.org/2000/svg">
<g clip-path="url(#clip0_303_436)">
<path d="M0 0H26V15H0V0Z" fill="#EF3340"/>
<path d="M0 0H26V5H0V0Z" fill="#00B5E2"/>
<path d="M0 10H26V15H0V10Z" fill="#509E2F"/>
<path d="M13.4612 9.32457C12.2955 9.32457 11.3528 8.50878 11.3528 7.50001C11.3528 6.49124 12.2955 5.67545 13.4612 5.67545C13.8261 5.67545 14.1657 5.75439 14.4647 5.89475C13.9984 5.50001 13.3548 5.25439 12.6503 5.25439C11.216 5.25439 10.0554 6.25878 10.0554 7.50001C10.0554 8.74124 11.216 9.74562 12.6503 9.74562C13.3548 9.74562 13.9984 9.50001 14.4647 9.10527C14.1657 9.24562 13.8261 9.32457 13.4612 9.32457Z" fill="white"/>
<path d="M15.083 6.23682L15.3618 6.91664L16.1169 6.60524L15.7571 7.25875L16.5427 7.49997L15.7571 7.7412L16.1169 8.39471L15.3618 8.08331L15.083 8.76313L14.8042 8.08331L14.0491 8.39471L14.4089 7.7412L13.6234 7.49997L14.4089 7.25875L14.0491 6.60524L14.8042 6.91664L15.083 6.23682Z" fill="white"/>
</g>
<defs>
<clipPath id="clip0_303_436">
<rect width="26" height="15" fill="white"/>
</clipPath>
</defs>
</svg>
