<svg width="50" height="50" viewBox="0 0 50 50" fill="none" xmlns="http://www.w3.org/2000/svg">
<g clip-path="url(#clip0_311_303)">
<path d="M25 50C11.2146 50 0 38.7854 0 25C0 11.2146 11.2146 0 25 0C38.7854 0 50 11.2146 50 25C50 38.7854 38.7854 50 25 50ZM25 2.08333C12.3646 2.08333 2.08333 12.3646 2.08333 25C2.08333 37.6354 12.3646 47.9167 25 47.9167C37.6354 47.9167 47.9167 37.6354 47.9167 25C47.9167 12.3646 37.6354 2.08333 25 2.08333Z" fill="black"/>
<path d="M15.625 20.8333C13.9021 20.8333 12.5 19.4312 12.5 17.7083C12.5 15.9854 13.9021 14.5833 15.625 14.5833C17.3479 14.5833 18.75 15.9854 18.75 17.7083C18.75 19.4312 17.3479 20.8333 15.625 20.8333ZM15.625 16.6666C15.0521 16.6666 14.5833 17.1333 14.5833 17.7083C14.5833 18.2833 15.0521 18.75 15.625 18.75C16.1979 18.75 16.6667 18.2833 16.6667 17.7083C16.6667 17.1333 16.1979 16.6666 15.625 16.6666Z" fill="black"/>
<path d="M34.375 20.8333C32.6521 20.8333 31.25 19.4312 31.25 17.7083C31.25 15.9854 32.6521 14.5833 34.375 14.5833C36.0979 14.5833 37.5 15.9854 37.5 17.7083C37.5 19.4312 36.0979 20.8333 34.375 20.8333ZM34.375 16.6666C33.8021 16.6666 33.3333 17.1333 33.3333 17.7083C33.3333 18.2833 33.8021 18.75 34.375 18.75C34.9479 18.75 35.4167 18.2833 35.4167 17.7083C35.4167 17.1333 34.9479 16.6666 34.375 16.6666Z" fill="black"/>
<path d="M25 43.75C16.7105 43.75 9.50838 38.4313 7.07713 30.5146C6.97922 30.1979 7.03755 29.8563 7.23338 29.5896C7.4313 29.3229 7.7438 29.1667 8.07297 29.1667H41.9271C42.2563 29.1667 42.5688 29.3229 42.7646 29.5896C42.9605 29.8563 43.0188 30.1979 42.9209 30.5146C40.4917 38.4313 33.2896 43.75 25 43.75ZM9.54588 31.25C12.0709 37.5375 18.1125 41.6667 25 41.6667C31.8876 41.6667 37.9292 37.5375 40.4542 31.25H9.54588Z" fill="black"/>
</g>
<defs>
<clipPath id="clip0_311_303">
<rect width="50" height="50" fill="white"/>
</clipPath>
</defs>
</svg>
