<svg width="26" height="15" viewBox="0 0 26 15" fill="none" xmlns="http://www.w3.org/2000/svg">
<g clip-path="url(#clip0_303_468)">
<path d="M0 0H26V15H0V0Z" fill="#D80027"/>
<path d="M11.4948 10.4912L11.0031 9.807L10.0959 9.99998L10.699 9.38156L10.2074 8.69735L11.0741 8.99998L11.6721 8.38156L11.6063 9.18858L12.4729 9.49121L11.5657 9.68419L11.4948 10.4912ZM14.7283 3.59647L14.2164 4.27191L14.8043 4.8991L13.9072 4.68858L13.3953 5.3684L13.3447 4.56138L12.4476 4.35086L13.3193 4.06138L13.2686 3.25436L13.8566 3.88156L14.7283 3.59647ZM11.9712 1.11401L11.8698 1.91665L12.7213 2.24998L11.809 2.41665L11.7076 3.21928L11.2413 2.51752L10.3341 2.68419L10.9575 2.08331L10.4912 1.38594L11.3427 1.71489L11.9712 1.11401ZM14.8398 7.09647L14.0846 7.57454L14.3786 8.34208L13.6234 7.8684L12.8682 8.35086L13.1521 7.57893L12.3969 7.10963L13.3295 7.10524L13.6133 6.33331L13.9072 7.10086L14.8398 7.09647ZM5.82848 2.03068L6.70528 4.37717H9.55363L7.25265 5.82015L8.12946 8.16665L5.82848 6.71928L3.52244 8.16665L4.40431 5.82015L2.09827 4.37717H4.95168L5.82848 2.03068Z" fill="#FFDA44"/>
</g>
<defs>
<clipPath id="clip0_303_468">
<rect width="26" height="15" fill="white"/>
</clipPath>
</defs>
</svg>
