<svg width="123" height="123" viewBox="0 0 123 123" fill="none" xmlns="http://www.w3.org/2000/svg">
<g clip-path="url(#clip0_303_503)">
<path d="M7.68753 102.5C7.30315 102.5 6.91365 102.413 6.53953 102.229C5.27365 101.593 4.76115 100.056 5.39153 98.7898L10.5165 88.5398C11.152 87.2739 12.6947 86.7717 13.9554 87.3918L24.2054 92.5168C25.4713 93.1523 25.9838 94.6898 25.3534 95.9557C24.723 97.2267 23.1855 97.7289 21.9145 97.1037L13.9554 93.1267L9.9784 101.086C9.5274 101.983 8.6254 102.5 7.68753 102.5Z" fill="black"/>
<path d="M38.4375 117.875H38.4272C22.3296 117.824 12.0745 103.822 10.2705 90.0206C10.0911 88.6164 11.0751 87.33 12.4845 87.1455C13.7965 86.9405 15.17 87.945 15.3596 89.3544C16.8715 100.947 25.2919 112.709 38.4477 112.75C39.8571 112.755 41.0051 113.908 41 115.318C40.9949 116.727 39.8469 117.875 38.4375 117.875Z" fill="black"/>
<path d="M110.188 35.8699C109.803 35.8699 109.414 35.7827 109.04 35.5982L98.7895 30.4732C97.5236 29.8377 97.0112 28.3002 97.6415 27.0344C98.277 25.7685 99.8145 25.2662 101.08 25.8864L109.04 29.8634L113.017 21.9042C113.652 20.6384 115.19 20.1412 116.455 20.7562C117.721 21.3917 118.234 22.9292 117.603 24.1951L112.478 34.4451C112.027 35.3471 111.125 35.8699 110.188 35.8699Z" fill="black"/>
<path d="M110.182 35.8699C108.917 35.8699 107.815 34.932 107.646 33.6405C106.129 22.0477 97.7133 10.2859 84.5523 10.2449C83.1429 10.2397 81.9949 9.08662 82 7.67212C82.0051 6.25762 83.1531 5.11475 84.5625 5.11475H84.5728C100.67 5.166 110.926 19.1675 112.73 32.9691C112.909 34.3734 111.925 35.6597 110.516 35.8442C110.408 35.8596 110.295 35.8699 110.182 35.8699Z" fill="black"/>
<path d="M79.4375 102.5C69.3771 102.5 61.5 96.8727 61.5 89.6875C61.5 88.273 62.648 87.125 64.0625 87.125C65.477 87.125 66.625 88.273 66.625 89.6875C66.625 93.8541 72.4931 97.375 79.4375 97.375C86.3819 97.375 92.25 93.8541 92.25 89.6875C92.25 85.5209 86.3819 82 79.4375 82C69.3771 82 61.5 76.3727 61.5 69.1875C61.5 62.0023 69.3771 56.375 79.4375 56.375C89.4979 56.375 97.375 62.0023 97.375 69.1875C97.375 70.602 96.227 71.75 94.8125 71.75C93.398 71.75 92.25 70.602 92.25 69.1875C92.25 65.0209 86.3819 61.5 79.4375 61.5C72.4931 61.5 66.625 65.0209 66.625 69.1875C66.625 73.3541 72.4931 76.875 79.4375 76.875C89.4979 76.875 97.375 82.5023 97.375 89.6875C97.375 96.8727 89.4979 102.5 79.4375 102.5Z" fill="black"/>
<path d="M79.4375 107.625C78.023 107.625 76.875 106.477 76.875 105.062V53.8125C76.875 52.398 78.023 51.25 79.4375 51.25C80.852 51.25 82 52.398 82 53.8125V105.062C82 106.477 80.852 107.625 79.4375 107.625Z" fill="black"/>
<path d="M38.4375 76.875C17.2405 76.875 0 59.6345 0 38.4375C0 17.2405 17.2405 0 38.4375 0C59.6345 0 76.875 17.2405 76.875 38.4375C76.875 39.852 75.727 41 74.3125 41C72.898 41 71.75 39.852 71.75 38.4375C71.75 20.0695 56.8055 5.125 38.4375 5.125C20.0695 5.125 5.125 20.0695 5.125 38.4375C5.125 56.8055 20.0695 71.75 38.4375 71.75C39.852 71.75 41 72.898 41 74.3125C41 75.727 39.852 76.875 38.4375 76.875Z" fill="black"/>
<path d="M79.4375 123C55.4166 123 35.875 103.458 35.875 79.4375C35.875 55.4166 55.4166 35.875 79.4375 35.875C103.458 35.875 123 55.4166 123 79.4375C123 103.458 103.458 123 79.4375 123ZM79.4375 41C58.2405 41 41 58.2405 41 79.4375C41 100.635 58.2405 117.875 79.4375 117.875C100.635 117.875 117.875 100.635 117.875 79.4375C117.875 58.2405 100.635 41 79.4375 41Z" fill="black"/>
<path d="M38.4375 61.5C28.3771 61.5 20.5 55.8727 20.5 48.6875V28.1875C20.5 21.0023 28.3771 15.375 38.4375 15.375C48.4979 15.375 56.375 21.0023 56.375 28.1875C56.375 29.602 55.227 30.75 53.8125 30.75C52.398 30.75 51.25 29.602 51.25 28.1875C51.25 24.0209 45.3819 20.5 38.4375 20.5C31.4931 20.5 25.625 24.0209 25.625 28.1875V48.6875C25.625 52.8541 31.4931 56.375 38.4375 56.375C39.852 56.375 41 57.523 41 58.9375C41 60.352 39.852 61.5 38.4375 61.5Z" fill="black"/>
<path d="M43.5625 35.875H17.9375C16.523 35.875 15.375 34.727 15.375 33.3125C15.375 31.898 16.523 30.75 17.9375 30.75H43.5625C44.977 30.75 46.125 31.898 46.125 33.3125C46.125 34.727 44.977 35.875 43.5625 35.875Z" fill="black"/>
<path d="M43.5625 46.125H17.9375C16.523 46.125 15.375 44.977 15.375 43.5625C15.375 42.148 16.523 41 17.9375 41H43.5625C44.977 41 46.125 42.148 46.125 43.5625C46.125 44.977 44.977 46.125 43.5625 46.125Z" fill="black"/>
</g>
<defs>
<clipPath id="clip0_303_503">
<rect width="123" height="123" fill="white"/>
</clipPath>
</defs>
</svg>
