<svg width="113" height="121" viewBox="0 0 113 121" fill="none" xmlns="http://www.w3.org/2000/svg">
<g filter="url(#filter0_d_524_143)">
<g clip-path="url(#clip0_524_143)">
<g filter="url(#filter1_d_524_143)">
<mask id="path-2-inside-1_524_143" fill="white">
<path d="M32.5628 91.1722C29.0127 91.1722 25.5427 89.4489 23.4381 86.2802C22.1103 84.2886 21.4747 81.9815 21.5971 79.6509C21.2628 79.4343 20.9803 79.1235 20.7873 78.7375L11.3282 59.8194C9.51554 56.2034 9.68033 51.9706 11.7614 48.5005L21.5359 32.2097C22.8966 29.9403 25.0154 28.1747 27.4967 27.2424L62.0841 14.271C62.7009 14.045 63.3789 14.0779 63.9627 14.3698L92.2127 28.4948C93.2674 29.0222 93.7712 30.2463 93.3898 31.3622C93.2156 31.866 89.0723 43.8628 79.0388 60.0877C69.5044 75.5122 56.919 79.2789 54.386 79.8957L38.2081 89.5996C36.4331 90.6637 34.4838 91.1722 32.5628 91.1722ZM39.211 42.2761C39.7901 42.2761 40.3692 42.5162 40.8448 42.8929C40.8966 42.9353 46.1699 47.0833 53.4914 47.0833C54.4425 47.0833 55.3041 47.6577 55.6666 48.5382C56.0339 49.4187 55.8314 50.431 55.1581 51.1042C50.9536 55.3088 46.6643 62.2018 46.4242 63.6755C46.4195 64.975 45.3742 65.9167 44.0747 65.9167C44.1218 65.9685 41.8382 66.8536 29.187 74.9096C27.7556 75.8183 26.7763 77.2355 26.4232 78.8928C26.0747 80.5549 26.3996 82.2499 27.3413 83.6671C29.2058 86.4638 32.9112 87.2972 35.7786 85.5692L52.2766 75.6723C52.5073 75.5358 52.7663 75.4369 53.03 75.3804C53.1524 75.3569 65.7425 72.6402 75.0273 57.6206C82.4947 45.5437 86.6522 35.7457 88.2059 31.7671L62.7668 19.0499L29.1493 31.6541C27.6615 32.2144 26.3902 33.2691 25.571 34.6345L15.7965 50.9253C14.544 53.0064 14.4499 55.5442 15.5375 57.7148L23.5982 73.8408C24.408 72.6967 25.4438 71.7126 26.6633 70.9357C28.5372 69.7445 30.1992 68.6946 31.6777 67.7765C31.0232 66.7971 30.3028 66.0108 29.9026 65.912C28.6031 65.912 27.6002 64.862 27.6002 63.5625C27.6002 59.584 23.6876 55.9115 23.65 55.8785C22.939 55.2193 22.7036 54.1929 23.0567 53.2889C23.4098 52.3849 24.2715 51.7917 25.2414 51.7917C27.1859 51.5704 36.2259 46.4618 37.0546 44.442C37.0546 43.538 37.5537 42.86 38.3729 42.4692C38.6413 42.3373 38.9238 42.2761 39.211 42.2761ZM32.1532 61.7686C33.674 62.5549 34.8793 64.0239 35.6986 65.3046C39.0462 63.2894 40.9578 62.263 42.116 61.7451C43.1283 58.9342 45.9345 54.725 48.6842 51.3208C44.9881 50.5957 42.0313 49.1785 40.1527 48.0768C37.709 50.9253 32.8924 53.7221 29.2905 55.2664C30.477 56.9285 31.7295 59.1979 32.1532 61.7686Z"/>
</mask>
<path d="M32.5628 91.1722C29.0127 91.1722 25.5427 89.4489 23.4381 86.2802C22.1103 84.2886 21.4747 81.9815 21.5971 79.6509C21.2628 79.4343 20.9803 79.1235 20.7873 78.7375L11.3282 59.8194C9.51554 56.2034 9.68033 51.9706 11.7614 48.5005L21.5359 32.2097C22.8966 29.9403 25.0154 28.1747 27.4967 27.2424L62.0841 14.271C62.7009 14.045 63.3789 14.0779 63.9627 14.3698L92.2127 28.4948C93.2674 29.0222 93.7712 30.2463 93.3898 31.3622C93.2156 31.866 89.0723 43.8628 79.0388 60.0877C69.5044 75.5122 56.919 79.2789 54.386 79.8957L38.2081 89.5996C36.4331 90.6637 34.4838 91.1722 32.5628 91.1722ZM39.211 42.2761C39.7901 42.2761 40.3692 42.5162 40.8448 42.8929C40.8966 42.9353 46.1699 47.0833 53.4914 47.0833C54.4425 47.0833 55.3041 47.6577 55.6666 48.5382C56.0339 49.4187 55.8314 50.431 55.1581 51.1042C50.9536 55.3088 46.6643 62.2018 46.4242 63.6755C46.4195 64.975 45.3742 65.9167 44.0747 65.9167C44.1218 65.9685 41.8382 66.8536 29.187 74.9096C27.7556 75.8183 26.7763 77.2355 26.4232 78.8928C26.0747 80.5549 26.3996 82.2499 27.3413 83.6671C29.2058 86.4638 32.9112 87.2972 35.7786 85.5692L52.2766 75.6723C52.5073 75.5358 52.7663 75.4369 53.03 75.3804C53.1524 75.3569 65.7425 72.6402 75.0273 57.6206C82.4947 45.5437 86.6522 35.7457 88.2059 31.7671L62.7668 19.0499L29.1493 31.6541C27.6615 32.2144 26.3902 33.2691 25.571 34.6345L15.7965 50.9253C14.544 53.0064 14.4499 55.5442 15.5375 57.7148L23.5982 73.8408C24.408 72.6967 25.4438 71.7126 26.6633 70.9357C28.5372 69.7445 30.1992 68.6946 31.6777 67.7765C31.0232 66.7971 30.3028 66.0108 29.9026 65.912C28.6031 65.912 27.6002 64.862 27.6002 63.5625C27.6002 59.584 23.6876 55.9115 23.65 55.8785C22.939 55.2193 22.7036 54.1929 23.0567 53.2889C23.4098 52.3849 24.2715 51.7917 25.2414 51.7917C27.1859 51.5704 36.2259 46.4618 37.0546 44.442C37.0546 43.538 37.5537 42.86 38.3729 42.4692C38.6413 42.3373 38.9238 42.2761 39.211 42.2761ZM32.1532 61.7686C33.674 62.5549 34.8793 64.0239 35.6986 65.3046C39.0462 63.2894 40.9578 62.263 42.116 61.7451C43.1283 58.9342 45.9345 54.725 48.6842 51.3208C44.9881 50.5957 42.0313 49.1785 40.1527 48.0768C37.709 50.9253 32.8924 53.7221 29.2905 55.2664C30.477 56.9285 31.7295 59.1979 32.1532 61.7686Z" fill="black"/>
<path d="M23.4381 86.2802L65.0881 58.6166L65.0644 58.5809L65.0406 58.5452L23.4381 86.2802ZM21.5971 79.6509L71.5283 82.2735L73.0446 53.4062L48.7842 37.6882L21.5971 79.6509ZM20.7873 78.7375L65.5086 56.3768V56.3768L20.7873 78.7375ZM11.3282 59.8194L56.0496 37.4587L56.038 37.4354L56.0263 37.4121L11.3282 59.8194ZM11.7614 48.5005L-31.1132 22.7757L-31.1184 22.7843L11.7614 48.5005ZM21.5359 32.2097L64.4106 57.9345L64.4145 57.928L64.4184 57.9214L21.5359 32.2097ZM27.4967 27.2424L9.9391 -19.5735L9.92519 -19.5683L9.9113 -19.5631L27.4967 27.2424ZM62.0841 14.271L44.8819 -32.6767L44.7039 -32.6115L44.5265 -32.545L62.0841 14.271ZM63.9627 14.3698L86.3234 -30.3515H86.3234L63.9627 14.3698ZM92.2127 28.4948L69.852 73.2162H69.852L92.2127 28.4948ZM93.3898 31.3622L140.644 47.7026L140.674 47.6176L140.703 47.5325L93.3898 31.3622ZM79.0388 60.0877L36.5132 33.79L36.5081 33.7982L79.0388 60.0877ZM54.386 79.8957L42.5569 31.3151L35.1787 33.1117L28.6667 37.0178L54.386 79.8957ZM38.2081 89.5996L63.9162 132.484L63.9274 132.478L38.2081 89.5996ZM40.8448 42.8929L72.5067 4.19505L72.2002 3.94433L71.8899 3.69849L40.8448 42.8929ZM55.6666 48.5382L9.43272 67.5757L9.47616 67.6812L9.52008 67.7865L55.6666 48.5382ZM46.4242 63.6755L-2.92504 55.6346L-3.56118 59.5387L-3.57551 63.4943L46.4242 63.6755ZM44.0747 65.9167V15.9167H-68.9529L7.0777 99.5503L44.0747 65.9167ZM29.187 74.9096L55.9858 117.121L56.0144 117.103L56.0429 117.085L29.187 74.9096ZM26.4232 78.8928L-22.4791 68.4733L-22.4963 68.5537L-22.5131 68.6342L26.4232 78.8928ZM27.3413 83.6671L-14.3037 111.338L-14.2825 111.37L-14.2612 111.402L27.3413 83.6671ZM35.7786 85.5692L10.0574 42.6924L10.0143 42.7183L9.97115 42.7443L35.7786 85.5692ZM52.2766 75.6723L26.8106 32.6435L26.6828 32.7191L26.5554 32.7955L52.2766 75.6723ZM53.03 75.3804L43.5876 26.2801L43.0694 26.3797L42.5535 26.4903L53.03 75.3804ZM75.0273 57.6206L32.5003 31.3251L32.4976 31.3295L75.0273 57.6206ZM88.2059 31.7671L134.78 49.9559L151.381 7.44899L110.563 -12.9559L88.2059 31.7671ZM62.7668 19.0499L85.1242 -25.6731L65.6254 -35.4207L45.2135 -27.7676L62.7668 19.0499ZM29.1493 31.6541L11.596 -15.1634L11.5621 -15.1507L11.5282 -15.1379L29.1493 31.6541ZM25.571 34.6345L68.4456 60.3593V60.3593L25.571 34.6345ZM15.7965 50.9253L58.6369 76.7071L58.654 76.6786L58.6711 76.6501L15.7965 50.9253ZM15.5375 57.7148L60.2615 35.3593L60.2505 35.3373L60.2394 35.3153L15.5375 57.7148ZM23.5982 73.8408L-21.1258 96.1963L16.1905 170.851L64.4093 102.728L23.5982 73.8408ZM26.6633 70.9357L-0.159902 28.7396L-0.180735 28.7528L-0.201554 28.7661L26.6633 70.9357ZM31.6777 67.7765L58.0559 110.252L101.974 82.9784L73.2494 39.9953L31.6777 67.7765ZM29.9026 65.912L41.895 17.3714L35.9876 15.912H29.9026V65.912ZM23.65 55.8785L-10.3447 92.5441L-9.8169 93.0334L-9.27528 93.5073L23.65 55.8785ZM25.2414 51.7917V101.792H28.0773L30.895 101.471L25.2414 51.7917ZM37.0546 44.442L83.313 63.4198L87.0546 54.2997V44.442H37.0546ZM38.3729 42.4692L59.8998 87.5978L60.1597 87.4738L60.4181 87.3469L38.3729 42.4692ZM32.1532 61.7686L-17.1811 69.9007L-13.1 94.6591L9.18954 106.183L32.1532 61.7686ZM35.6986 65.3046L-6.42062 92.2485L19.7992 133.236L61.4854 108.142L35.6986 65.3046ZM42.116 61.7451L62.5262 107.39L81.9493 98.7045L89.1584 78.6866L42.116 61.7451ZM48.6842 51.3208L87.5802 82.7389L139.694 18.2218L58.3096 2.25607L48.6842 51.3208ZM40.1527 48.0768L65.447 4.94677L29.4067 -16.1896L2.20312 15.5217L40.1527 48.0768ZM29.2905 55.2664L9.58732 9.31227L-47.4811 33.7808L-11.4039 84.3174L29.2905 55.2664ZM32.5628 41.1722C45.1031 41.1722 57.5684 47.295 65.0881 58.6166L-18.212 113.944C-6.48301 131.603 12.9224 141.172 32.5628 141.172V41.1722ZM65.0406 58.5452C69.5841 65.3604 71.9801 73.6714 71.5283 82.2735L-28.3341 77.0282C-29.0307 90.2915 -25.3634 103.217 -18.1644 114.015L65.0406 58.5452ZM48.7842 37.6882C56.0103 42.37 61.749 48.8574 65.5086 56.3768L-23.9341 101.098C-19.7883 109.39 -13.4847 116.499 -5.58994 121.614L48.7842 37.6882ZM65.5086 56.3768L56.0496 37.4587L-33.3931 82.1801L-23.9341 101.098L65.5086 56.3768ZM56.0263 37.4121C61.904 49.137 61.3341 63.0568 54.6412 74.2168L-31.1184 22.7843C-41.9735 40.8843 -42.8729 63.2697 -33.3698 82.2266L56.0263 37.4121ZM54.6361 74.2253L64.4106 57.9345L-21.3387 6.48492L-31.1132 22.7757L54.6361 74.2253ZM64.4184 57.9214C59.9603 65.3568 53.1537 71.0153 45.082 74.0479L9.9113 -19.5631C-3.12293 -14.666 -14.167 -5.47617 -21.3466 6.498L64.4184 57.9214ZM45.0542 74.0583L79.6416 61.0869L44.5265 -32.545L9.9391 -19.5735L45.0542 74.0583ZM79.2863 61.2186C67.2934 65.613 53.6396 65.11 41.602 59.0912L86.3234 -30.3515C73.1182 -36.9541 58.1084 -37.5231 44.8819 -32.6767L79.2863 61.2186ZM41.602 59.0912L69.852 73.2162L114.573 -16.2265L86.3234 -30.3515L41.602 59.0912ZM69.852 73.2162C48.5925 62.5864 38.3391 37.8318 46.0768 15.1919L140.703 47.5325C149.203 22.6609 137.942 -4.5421 114.573 -16.2265L69.852 73.2162ZM46.1352 15.0218C46.1326 15.0294 46.1433 14.9986 46.1555 14.9634C46.167 14.9307 46.1765 14.9037 46.184 14.8825C46.1989 14.8404 46.2011 14.8349 46.1902 14.8646C46.1683 14.9245 46.0899 15.1363 45.9521 15.4868C45.6755 16.1902 45.1618 17.4471 44.3865 19.1541C42.8279 22.5859 40.262 27.7278 36.5132 33.79L121.564 86.3855C134.092 66.1268 139.669 50.5239 140.644 47.7026L46.1352 15.0218ZM36.5081 33.7982C36.11 34.4422 36.2414 33.9955 37.342 33.2987C38.2331 32.7346 39.7583 31.9966 42.5569 31.3151L66.215 128.476C76.7174 125.919 102.906 116.571 121.569 86.3773L36.5081 33.7982ZM28.6667 37.0178L12.4888 46.7216L63.9274 132.478L80.1052 122.774L28.6667 37.0178ZM12.5001 46.7149C18.6429 43.0324 25.6059 41.1722 32.5628 41.1722V141.172C43.3617 141.172 54.2232 138.295 63.9162 132.484L12.5001 46.7149ZM39.211 92.2761C26.2052 92.2761 16.1554 87.1215 9.79971 82.0873L71.8899 3.69849C64.5831 -2.08903 53.375 -7.72388 39.211 -7.72388V92.2761ZM9.1829 81.5908C12.4406 84.2561 28.9291 97.0833 53.4914 97.0833V-2.91667C59.1661 -2.91667 63.3187 -1.36032 65.536 -0.328544C66.7581 0.240132 67.8333 0.854321 68.793 1.46942C69.5301 1.94184 70.7953 2.79482 72.5067 4.19505L9.1829 81.5908ZM53.4914 97.0833C34.2631 97.0833 16.8157 85.5059 9.43272 67.5757L101.901 29.5007C93.7924 9.80961 74.6218 -2.91667 53.4914 -2.91667V97.0833ZM9.52008 67.7865C2.05344 49.8857 6.20204 29.3496 19.8028 15.7489L90.5135 86.4596C105.461 71.5123 110.014 48.9516 101.813 29.2899L9.52008 67.7865ZM19.8028 15.7489C14.6072 20.9445 10.4478 26.5749 7.74843 30.6094C6.30567 32.7657 4.78846 35.2013 3.40867 37.7298C2.73607 38.9624 1.82801 40.7055 0.924017 42.7618C0.470307 43.7938 -1.82458 48.8808 -2.92504 55.6346L95.7734 71.7164C95.1579 75.4937 94.2325 78.3359 93.7892 79.6228C93.2672 81.1382 92.7753 82.3083 92.4679 83.0076C91.8608 84.3883 91.3601 85.3184 91.1891 85.6318C90.8125 86.3219 90.6754 86.4952 90.8605 86.2185C91.0029 86.0058 91.1639 85.7863 91.2673 85.6555C91.4136 85.4706 91.1797 85.7933 90.5135 86.4596L19.8028 15.7489ZM-3.57551 63.4943C-3.47022 34.4347 20.7338 15.9167 44.0747 15.9167V115.917C70.0146 115.917 96.3091 95.5153 96.4238 63.8567L-3.57551 63.4943ZM7.0777 99.5503C1.02877 92.8965 -3.69963 84.0517 -5.32646 73.6289C-6.88032 63.6738 -5.15376 55.2346 -3.13121 49.4407C0.457649 39.1599 6.47242 32.8796 8.12784 31.1677C12.2537 26.9008 16.2663 24.3681 16.6394 24.1235C17.8478 23.3312 18.8226 22.7698 19.1718 22.5698C19.6138 22.3167 19.9594 22.1282 20.1002 22.0517C20.1503 22.0245 20.9212 21.6113 20.0122 22.0962C19.153 22.5546 18.0103 23.1797 16.4605 24.0713C13.4688 25.7922 9.06509 28.4462 2.33099 32.7343L56.0429 117.085C61.9601 113.317 65.0238 111.5 66.325 110.752C66.6392 110.571 66.8407 110.458 66.9459 110.4C67.0423 110.347 67.0805 110.326 67.0827 110.325C67.0973 110.318 67.1072 110.312 67.1889 110.269C67.2191 110.253 67.2987 110.211 67.3843 110.165C67.4656 110.122 67.6323 110.033 67.8346 109.923C68.0167 109.824 68.3971 109.617 68.8679 109.347C69.2459 109.131 70.2435 108.555 71.4691 107.752C71.8595 107.496 75.8837 104.954 80.0163 100.681C81.675 98.9652 87.6918 92.682 91.2816 82.3987C93.3045 76.6036 95.0312 68.1633 93.4772 58.2071C91.8502 47.7834 87.1214 38.9377 81.0717 32.283L7.0777 99.5503ZM2.38812 32.6979C-10.4698 40.861 -19.3489 53.7822 -22.4791 68.4733L75.3254 89.3124C72.9015 100.689 65.9811 110.776 55.9858 117.121L2.38812 32.6979ZM-22.5131 68.6342C-25.6084 83.3996 -22.6617 98.7595 -14.3037 111.338L68.9863 55.996C75.4609 65.7403 77.7579 77.7102 75.3595 89.1514L-22.5131 68.6342ZM-14.2612 111.402C2.35916 136.333 35.7199 143.982 61.5861 128.394L9.97115 42.7443C30.1026 30.6125 56.0524 36.595 68.9438 55.9321L-14.2612 111.402ZM61.4998 128.446L77.9978 118.549L26.5554 32.7955L10.0574 42.6924L61.4998 128.446ZM77.7427 118.701C73.0783 121.462 68.2338 123.258 63.5064 124.271L42.5535 26.4903C37.2988 27.6163 31.9364 29.6098 26.8106 32.6435L77.7427 118.701ZM62.4723 124.481C71.0101 122.839 98.486 114.762 117.557 83.9117L32.4976 31.3295C32.4921 31.3383 32.5462 31.2504 32.6758 31.0915C32.8047 30.9335 32.9857 30.7329 33.2248 30.5054C33.7098 30.0439 34.3372 29.5626 35.1207 29.0987C35.8884 28.6442 36.8218 28.1963 37.9882 27.7683C38.5766 27.5523 39.2467 27.3332 40.0142 27.116C40.3982 27.0074 40.8153 26.8967 41.2686 26.7854C41.4941 26.73 41.7396 26.6717 42.0053 26.6114C42.1364 26.5816 42.2896 26.5474 42.4623 26.51C42.547 26.4917 42.6584 26.4678 42.7898 26.4403C42.8429 26.4292 43.1696 26.3605 43.5876 26.2801L62.4723 124.481ZM117.554 83.9161C126.96 68.7041 132.395 56.0645 134.78 49.9559L41.6316 13.5783C40.9097 15.4269 38.0292 22.3833 32.5003 31.3251L117.554 83.9161ZM110.563 -12.9559L85.1242 -25.6731L40.4094 63.7729L65.8485 76.4901L110.563 -12.9559ZM45.2135 -27.7676L11.596 -15.1634L46.7026 78.4717L80.3201 65.8675L45.2135 -27.7676ZM11.5282 -15.1379C-0.426607 -10.636 -10.6361 -2.20298 -17.3037 8.90971L68.4456 60.3593C63.4165 68.7411 55.7495 75.0648 46.7704 78.4462L11.5282 -15.1379ZM-17.3037 8.90971L-27.0782 25.2005L58.6711 76.6501L68.4456 60.3593L-17.3037 8.90971ZM-27.0439 25.1435C-37.1617 41.9558 -37.9015 62.678 -29.1645 80.1142L60.2394 35.3153C66.8012 48.4105 66.2498 64.0571 58.6369 76.7071L-27.0439 25.1435ZM-29.1865 80.0702L-21.1258 96.1963L68.3221 51.4853L60.2615 35.3593L-29.1865 80.0702ZM64.4093 102.728C61.3912 106.992 57.6505 110.479 53.5281 113.105L-0.201554 28.7661C-6.76284 32.9461 -12.5752 38.4017 -17.213 44.9539L64.4093 102.728ZM53.4865 113.132C55.3114 111.972 56.8004 111.032 58.0559 110.252L5.29942 25.3007C3.59805 26.3573 1.76302 27.5172 -0.159902 28.7396L53.4865 113.132ZM73.2494 39.9953C71.8029 37.8309 69.7674 35.0742 67.101 32.2418C65.7971 30.8567 63.6396 28.7007 60.7076 26.4494C58.6557 24.8739 51.99 19.8655 41.895 17.3714L17.9103 114.452C12.4372 113.1 8.30513 111.086 5.81644 109.706C3.19519 108.252 1.17092 106.813 -0.194086 105.765C-2.85793 103.72 -4.71944 101.84 -5.71143 100.786C-7.754 98.6165 -9.10208 96.7427 -9.89408 95.5576L73.2494 39.9953ZM29.9026 15.912C57.532 15.912 77.6002 38.581 77.6002 63.5625H-22.3998C-22.3998 91.143 -0.325792 115.912 29.9026 115.912V15.912ZM77.6002 63.5625C77.6002 46.3756 69.7802 34.1586 66.7476 29.7786C63.1686 24.6094 59.3308 20.6609 56.5752 18.2497L-9.27528 93.5073C-9.75829 93.0847 -10.1402 92.7326 -10.1408 92.732C-10.2526 92.6295 -10.3423 92.5464 -10.3964 92.496C-10.51 92.3903 -10.6038 92.3021 -10.6703 92.2393C-10.809 92.1083 -10.9317 91.9908 -11.0374 91.8887C-11.2519 91.6814 -11.4539 91.4822 -11.6447 91.29C-12.025 90.9071 -12.4056 90.508 -12.7865 90.0872C-13.5017 89.2971 -14.4491 88.1765 -15.4692 86.7032C-16.4394 85.3018 -17.963 82.884 -19.3345 79.5081C-20.6883 76.1761 -22.3998 70.6649 -22.3998 63.5625H77.6002ZM57.6446 19.2129C72.0039 32.5262 76.7472 53.2603 69.6296 71.4814L-23.5162 35.0964C-31.34 55.1255 -26.1259 77.9125 -10.3447 92.5441L57.6446 19.2129ZM69.6296 71.4814C62.5556 89.5908 45.0447 101.792 25.2414 101.792V1.79167C3.49819 1.79167 -15.7359 15.179 -23.5162 35.0964L69.6296 71.4814ZM30.895 101.471C37.6666 100.7 42.8851 98.6698 43.9915 98.2505C46.1412 97.4359 47.9978 96.5932 49.3413 95.9514C52.0833 94.6417 54.7934 93.1583 57.2099 91.7146C59.5297 90.3287 62.5835 88.3815 65.6555 86.0138C67.1505 84.8616 69.4564 82.9942 71.9108 80.5165C73.3989 79.0143 79.3719 73.0263 83.313 63.4198L-9.20385 25.4641C-7.07841 20.2834 -4.52959 16.622 -3.0786 14.7026C-1.49392 12.6064 -0.0535917 11.0699 0.866835 10.1407C2.66068 8.32983 4.10916 7.19473 4.60972 6.80894C5.69292 5.97408 6.20976 5.69661 5.92292 5.86797C5.73277 5.98157 5.76651 5.94301 6.24071 5.71651C6.45034 5.61638 7.27514 5.22483 8.55502 4.73981C9.20382 4.49395 10.3306 4.08625 11.8031 3.66068C13.0438 3.3021 15.8582 2.53675 19.5878 2.11232L30.895 101.471ZM87.0546 44.442C87.0546 53.6261 84.3778 63.1749 78.6449 71.5367C73.0986 79.6262 66.0465 84.6657 59.8998 87.5978L16.846 -2.65947C1.4269 4.69564 -12.9454 21.349 -12.9454 44.442H87.0546ZM60.4181 87.3469C53.5111 90.7398 46.2081 92.2761 39.211 92.2761V-7.72388C31.6395 -7.72388 23.7715 -6.06514 16.3277 -2.40855L60.4181 87.3469ZM9.18954 106.183C3.63836 103.313 -0.034049 99.9241 -2.07547 97.7735C-4.19476 95.5407 -5.59099 93.5454 -6.42062 92.2485L77.8178 38.3607C75.2963 34.4191 68.2679 24.1533 55.1169 17.3539L9.18954 106.183ZM61.4854 108.142C62.8098 107.345 63.54 106.931 63.8442 106.763C63.9843 106.686 63.9442 106.711 63.7582 106.805C63.5805 106.896 63.1523 107.11 62.5262 107.39L21.7059 16.1005C17.597 17.9378 13.4969 20.3091 9.9118 22.4672L61.4854 108.142ZM89.1584 78.6866C88.7253 79.8894 88.321 80.8258 88.0344 81.4514C87.7409 82.0923 87.493 82.5765 87.3275 82.8876C87.1585 83.2053 87.0311 83.4259 86.961 83.5445C86.9239 83.6073 86.8961 83.6529 86.8787 83.6812C86.8611 83.7097 86.8516 83.7246 86.8506 83.7262C86.8499 83.7272 86.8733 83.6908 86.9218 83.6199C86.9698 83.5498 87.0327 83.4602 87.1089 83.3552C87.2682 83.1357 87.4347 82.919 87.5802 82.7389L9.78812 19.9027C6.37483 24.1284 -0.937881 33.7286 -4.92632 44.8035L89.1584 78.6866ZM58.3096 2.25607C61.5777 2.89719 63.931 4.05772 65.447 4.94677L14.8584 91.2068C20.1316 94.2994 28.3986 98.2943 39.0587 100.386L58.3096 2.25607ZM2.20312 15.5217C4.11169 13.2969 5.7495 11.9046 6.53707 11.2692C7.4061 10.5682 8.0288 10.1581 8.29496 9.98856C8.72544 9.71438 9.02747 9.55231 9.58732 9.31227L48.9938 101.221C54.8624 98.7043 68.1507 92.2324 78.1022 80.6319L2.20312 15.5217ZM-11.4039 84.3174C-12.1819 83.2277 -13.234 81.5962 -14.2583 79.4128C-15.2777 77.2399 -16.5008 74.0276 -17.1811 69.9007L81.4875 53.6366C79.3507 40.6734 73.5562 31.2179 69.985 26.2154L-11.4039 84.3174Z" fill="black" mask="url(#path-2-inside-1_524_143)"/>
<mask id="path-4-inside-2_524_143" fill="white">
<path d="M29.9497 103.583C28.6502 103.583 27.5956 102.529 27.5956 101.229V89.4583C27.5956 88.1588 28.6502 87.1042 29.9497 87.1042C31.2492 87.1042 32.3039 88.1588 32.3039 89.4583V101.229C32.3039 102.529 31.2492 103.583 29.9497 103.583Z"/>
</mask>
<path d="M29.9497 103.583C28.6502 103.583 27.5956 102.529 27.5956 101.229V89.4583C27.5956 88.1588 28.6502 87.1042 29.9497 87.1042C31.2492 87.1042 32.3039 88.1588 32.3039 89.4583V101.229C32.3039 102.529 31.2492 103.583 29.9497 103.583Z" fill="black"/>
<path d="M29.9497 93.5833C34.1731 93.5833 37.5956 97.0058 37.5956 101.229H17.5956C17.5956 108.052 23.1274 113.583 29.9497 113.583V93.5833ZM37.5956 101.229V89.4583H17.5956V101.229H37.5956ZM37.5956 89.4583C37.5956 93.6817 34.1731 97.1042 29.9497 97.1042V77.1042C23.1274 77.1042 17.5956 82.636 17.5956 89.4583H37.5956ZM29.9497 97.1042C25.7264 97.1042 22.3039 93.6817 22.3039 89.4583H42.3039C42.3039 82.636 36.7721 77.1042 29.9497 77.1042V97.1042ZM22.3039 89.4583V101.229H42.3039V89.4583H22.3039ZM22.3039 101.229C22.3039 97.0058 25.7264 93.5833 29.9497 93.5833V113.583C36.7721 113.583 42.3039 108.052 42.3039 101.229H22.3039Z" fill="black" mask="url(#path-4-inside-2_524_143)"/>
<mask id="path-6-inside-3_524_143" fill="white">
<path d="M95.8617 34.7616C94.7646 34.7616 93.7053 34.5074 92.7071 34.0083L57.145 16.2296C56.5094 15.9142 56.0527 15.3256 55.8973 14.6288C55.742 13.932 55.9115 13.2069 56.3588 12.6513L65.7754 0.880463C66.4393 0.0565049 67.574 -0.225995 68.5392 0.188338L101.498 14.3133C102.369 14.6853 102.929 15.5375 102.929 16.4792V27.6944C102.929 29.6343 102.166 31.4328 100.777 32.77C99.4683 34.0365 97.6744 34.7616 95.8617 34.7616ZM61.8581 13.3199L94.8164 29.799C95.7204 30.2558 96.8033 30.058 97.5143 29.38C97.8345 29.0693 98.2205 28.5231 98.2205 27.6944V18.0282L68.3368 5.22155L61.8581 13.3199Z"/>
</mask>
<path d="M95.8617 34.7616C94.7646 34.7616 93.7053 34.5074 92.7071 34.0083L57.145 16.2296C56.5094 15.9142 56.0527 15.3256 55.8973 14.6288C55.742 13.932 55.9115 13.2069 56.3588 12.6513L65.7754 0.880463C66.4393 0.0565049 67.574 -0.225995 68.5392 0.188338L101.498 14.3133C102.369 14.6853 102.929 15.5375 102.929 16.4792V27.6944C102.929 29.6343 102.166 31.4328 100.777 32.77C99.4683 34.0365 97.6744 34.7616 95.8617 34.7616ZM61.8581 13.3199L94.8164 29.799C95.7204 30.2558 96.8033 30.058 97.5143 29.38C97.8345 29.0693 98.2205 28.5231 98.2205 27.6944V18.0282L68.3368 5.22155L61.8581 13.3199Z" fill="black"/>
<path d="M92.7071 34.0083L97.1792 25.064L97.1788 25.0638L92.7071 34.0083ZM57.145 16.2296L61.6167 7.28512L61.6037 7.2786L61.5906 7.27213L57.145 16.2296ZM56.3588 12.6513L64.1481 18.9224L64.1578 18.9103L64.1674 18.8982L56.3588 12.6513ZM65.7754 0.880463L57.9885 -5.39358L57.9776 -5.38005L57.9667 -5.36649L65.7754 0.880463ZM68.5392 0.188338L64.5946 9.37747L64.6 9.37979L68.5392 0.188338ZM101.498 14.3133L97.5583 23.5048L97.5704 23.5099L101.498 14.3133ZM100.777 32.77L93.8417 25.5659L93.8325 25.5747L93.8234 25.5836L100.777 32.77ZM61.8581 13.3199L54.0494 7.07293L46.322 16.7322L57.3859 22.2642L61.8581 13.3199ZM94.8164 29.799L99.3257 20.8734L99.3072 20.8641L99.2886 20.8548L94.8164 29.799ZM97.5143 29.38L104.416 36.6168L104.447 36.5865L104.479 36.5558L97.5143 29.38ZM98.2205 18.0282H108.221V11.4341L102.16 8.83669L98.2205 18.0282ZM68.3368 5.22155L72.2758 -3.96998L65.2816 -6.96732L60.5281 -1.02541L68.3368 5.22155ZM95.8617 24.7616C96.3562 24.7616 96.8243 24.8866 97.1792 25.064L88.235 42.9526C90.5862 44.1282 93.173 44.7616 95.8617 44.7616V24.7616ZM97.1788 25.0638L61.6167 7.28512L52.6734 25.1741L88.2354 42.9528L97.1788 25.0638ZM61.5906 7.27213C63.7024 8.3202 65.1665 10.2497 65.6577 12.4525L46.137 16.8051C46.9389 20.4016 49.3164 23.5081 52.6995 25.1871L61.5906 7.27213ZM65.6577 12.4525C66.1647 14.7264 65.6073 17.1099 64.1481 18.9224L48.5694 6.38022C46.2156 9.30388 45.3193 13.1375 46.137 16.8051L65.6577 12.4525ZM64.1674 18.8982L73.5841 7.12741L57.9667 -5.36649L48.5501 6.40435L64.1674 18.8982ZM73.5624 7.15451C71.4271 9.8047 67.7731 10.7419 64.5946 9.37747L72.4838 -9.00079C67.3749 -11.1939 61.4515 -9.69169 57.9885 -5.39358L73.5624 7.15451ZM64.6 9.37979L97.5583 23.5048L105.437 5.12189L72.4784 -9.00311L64.6 9.37979ZM97.5704 23.5099C94.7538 22.3072 92.9289 19.5378 92.9289 16.4792H112.929C112.929 11.5372 109.983 7.06341 105.425 5.11675L97.5704 23.5099ZM92.9289 16.4792V27.6944H112.929V16.4792H92.9289ZM92.9289 27.6944C92.9289 26.9336 93.2601 26.1258 93.8417 25.5659L107.713 39.9741C111.072 36.7398 112.929 32.3349 112.929 27.6944H92.9289ZM93.8234 25.5836C94.3768 25.0481 95.0754 24.7616 95.8617 24.7616V44.7616C100.273 44.7616 104.56 43.025 107.731 39.9564L93.8234 25.5836ZM57.3859 22.2642L90.3443 38.7433L99.2886 20.8548L66.3302 4.37561L57.3859 22.2642ZM90.3071 38.7246C95.2019 41.1975 100.818 40.0475 104.416 36.6168L90.613 22.1432C92.7885 20.0685 96.239 19.314 99.3257 20.8734L90.3071 38.7246ZM104.479 36.5558C106.131 34.9523 108.221 31.9712 108.221 27.6944H88.2205C88.2205 25.0749 89.5378 23.1862 90.5495 22.2042L104.479 36.5558ZM108.221 27.6944V18.0282H88.2205V27.6944H108.221ZM102.16 8.83669L72.2758 -3.96998L64.3977 14.4131L94.2815 27.2197L102.16 8.83669ZM60.5281 -1.02541L54.0494 7.07293L69.6668 19.5668L76.1454 11.4685L60.5281 -1.02541Z" fill="black" mask="url(#path-6-inside-3_524_143)"/>
<mask id="path-8-inside-4_524_143" fill="white">
<path d="M29.9497 113C20.8627 113 13.4706 105.608 13.4706 96.5208C13.4706 89.8209 17.4868 83.8366 23.6971 81.2847C24.8977 80.795 26.2725 81.3647 26.7669 82.5606C26.9223 82.9373 27.1106 83.3046 27.346 83.6577C29.1446 86.3603 32.9913 87.236 35.7834 85.5646L38.2317 84.1003C39.1169 83.5588 40.2563 83.6765 41.0285 84.3828C44.4608 87.5185 46.4336 91.9396 46.4336 96.5208C46.4289 105.608 39.0368 113 29.9497 113ZM23.6453 86.5863C20.2694 88.7191 18.1789 92.4293 18.1789 96.5161C18.1789 103.004 23.4617 108.287 29.9497 108.287C36.4378 108.287 41.7206 103.004 41.7206 96.5161C41.7206 93.7759 40.7789 91.2004 39.0368 89.1005L38.2035 89.5996C33.4433 92.4576 26.847 91.0592 23.6453 86.5863Z"/>
</mask>
<path d="M29.9497 113C20.8627 113 13.4706 105.608 13.4706 96.5208C13.4706 89.8209 17.4868 83.8366 23.6971 81.2847C24.8977 80.795 26.2725 81.3647 26.7669 82.5606C26.9223 82.9373 27.1106 83.3046 27.346 83.6577C29.1446 86.3603 32.9913 87.236 35.7834 85.5646L38.2317 84.1003C39.1169 83.5588 40.2563 83.6765 41.0285 84.3828C44.4608 87.5185 46.4336 91.9396 46.4336 96.5208C46.4289 105.608 39.0368 113 29.9497 113ZM23.6453 86.5863C20.2694 88.7191 18.1789 92.4293 18.1789 96.5161C18.1789 103.004 23.4617 108.287 29.9497 108.287C36.4378 108.287 41.7206 103.004 41.7206 96.5161C41.7206 93.7759 40.7789 91.2004 39.0368 89.1005L38.2035 89.5996C33.4433 92.4576 26.847 91.0592 23.6453 86.5863Z" fill="black"/>
<path d="M23.6971 81.2847L19.9207 72.0252L19.9085 72.0301L19.8963 72.0351L23.6971 81.2847ZM26.7669 82.5606L36.0113 78.7473L36.0084 78.7403L26.7669 82.5606ZM27.346 83.6577L35.671 78.1174L35.6665 78.1107L27.346 83.6577ZM35.7834 85.5646L30.6505 76.9824L30.6469 76.9845L35.7834 85.5646ZM38.2317 84.1003L43.3645 92.6825L43.4073 92.6569L43.4499 92.6308L38.2317 84.1003ZM41.0285 84.3828L34.2794 91.7618L34.2836 91.7656L41.0285 84.3828ZM46.4336 96.5208L56.4336 96.526V96.5208H46.4336ZM23.6453 86.5863L31.7768 80.7658L26.2833 73.0909L18.304 78.1322L23.6453 86.5863ZM39.0368 89.1005L46.7332 82.7157L41.2571 76.1147L33.899 80.5213L39.0368 89.1005ZM38.2035 89.5996L33.0656 81.0204L33.056 81.0262L38.2035 89.5996ZM29.9497 103C26.3855 103 23.4706 100.085 23.4706 96.5208H3.47058C3.47058 111.131 15.3398 123 29.9497 123V103ZM23.4706 96.5208C23.4706 93.8864 25.0283 91.549 27.4979 90.5342L19.8963 72.0351C9.94526 76.1242 3.47058 85.7554 3.47058 96.5208H23.4706ZM27.4735 90.5442C23.6156 92.1176 19.1496 90.3099 17.5254 86.3809L36.0084 78.7403C33.3955 72.4195 26.1798 69.4724 19.9207 72.0252L27.4735 90.5442ZM17.5225 86.3739C17.8919 87.2695 18.3768 88.2315 19.0255 89.2047L35.6665 78.1107C35.8445 78.3776 35.9527 78.6051 36.0113 78.7473L17.5225 86.3739ZM19.0211 89.198C23.7697 96.3333 33.5377 98.5639 40.9198 94.1446L30.6469 76.9845C31.6693 76.3725 32.6801 76.3351 33.4014 76.4985C34.121 76.6615 35.0128 77.1283 35.671 78.1174L19.0211 89.198ZM40.9162 94.1468L43.3645 92.6825L33.0989 75.5181L30.6505 76.9824L40.9162 94.1468ZM43.4499 92.6308C40.4582 94.4608 36.7278 94.0012 34.2794 91.7618L47.7775 77.0038C43.7848 73.3519 37.7755 72.6568 33.0135 75.5697L43.4499 92.6308ZM34.2836 91.7656C35.6842 93.0452 36.4336 94.8049 36.4336 96.5208H56.4336C56.4336 89.0744 53.2375 81.9919 47.7733 76.9999L34.2836 91.7656ZM36.4336 96.5157C36.4318 100.085 33.513 103 29.9497 103V123C44.5607 123 56.4261 111.131 56.4336 96.526L36.4336 96.5157ZM18.304 78.1322C12.0571 82.079 8.17891 88.9643 8.17891 96.5161H28.1789C28.1789 95.8943 28.4817 95.3593 28.9865 95.0403L18.304 78.1322ZM8.17891 96.5161C8.17891 108.527 17.9388 118.287 29.9497 118.287V98.287C28.9845 98.287 28.1789 97.4814 28.1789 96.5161H8.17891ZM29.9497 118.287C41.9607 118.287 51.7206 108.527 51.7206 96.5161H31.7206C31.7206 97.4814 30.915 98.287 29.9497 98.287V118.287ZM51.7206 96.5161C51.7206 91.4183 49.9475 86.5902 46.7332 82.7157L31.3405 95.4854C31.6103 95.8106 31.7206 96.1335 31.7206 96.5161H51.7206ZM33.899 80.5213L33.0656 81.0204L43.3413 98.1788L44.1747 97.6797L33.899 80.5213ZM33.056 81.0262C33.0555 81.0265 32.8271 81.1456 32.3815 81.0526C31.9306 80.9586 31.7685 80.7541 31.7768 80.7658L15.5137 92.4067C21.7359 101.1 34.1049 103.724 43.3509 98.173L33.056 81.0262Z" fill="black" mask="url(#path-8-inside-4_524_143)"/>
</g>
</g>
<rect width="113" height="113" stroke="black" shape-rendering="crispEdges"/>
</g>
<defs>
<filter id="filter0_d_524_143" x="-4" y="0" width="121" height="121" filterUnits="userSpaceOnUse" color-interpolation-filters="sRGB">
<feFlood flood-opacity="0" result="BackgroundImageFix"/>
<feColorMatrix in="SourceAlpha" type="matrix" values="0 0 0 0 0 0 0 0 0 0 0 0 0 0 0 0 0 0 127 0" result="hardAlpha"/>
<feOffset dy="4"/>
<feGaussianBlur stdDeviation="2"/>
<feComposite in2="hardAlpha" operator="out"/>
<feColorMatrix type="matrix" values="0 0 0 0 0 0 0 0 0 0 0 0 0 0 0 0 0 0 0.25 0"/>
<feBlend mode="normal" in2="BackgroundImageFix" result="effect1_dropShadow_524_143"/>
<feBlend mode="normal" in="SourceGraphic" in2="effect1_dropShadow_524_143" result="shape"/>
</filter>
<filter id="filter1_d_524_143" x="6.07605" y="-0.000732422" width="100.853" height="121.001" filterUnits="userSpaceOnUse" color-interpolation-filters="sRGB">
<feFlood flood-opacity="0" result="BackgroundImageFix"/>
<feColorMatrix in="SourceAlpha" type="matrix" values="0 0 0 0 0 0 0 0 0 0 0 0 0 0 0 0 0 0 127 0" result="hardAlpha"/>
<feOffset dy="4"/>
<feGaussianBlur stdDeviation="2"/>
<feComposite in2="hardAlpha" operator="out"/>
<feColorMatrix type="matrix" values="0 0 0 0 0 0 0 0 0 0 0 0 0 0 0 0 0 0 0.25 0"/>
<feBlend mode="normal" in2="BackgroundImageFix" result="effect1_dropShadow_524_143"/>
<feBlend mode="normal" in="SourceGraphic" in2="effect1_dropShadow_524_143" result="shape"/>
</filter>
<clipPath id="clip0_524_143">
<rect width="113" height="113" fill="white"/>
</clipPath>
</defs>
</svg>
