<svg width="50" height="50" viewBox="0 0 50 50" fill="none" xmlns="http://www.w3.org/2000/svg">
<g clip-path="url(#clip0_311_214)">
<path d="M35.2688 44.7917H15.625C13.9021 44.7917 12.5 43.3896 12.5 41.6667C12.5 39.3687 14.2146 37.3937 16.4896 37.0687L24.8979 35.7479L10.7146 21.5646C9.16252 20.0125 9.16252 17.4875 10.7146 15.9375C12.2833 14.3708 14.8042 14.375 16.3563 15.925L20.0479 19.6167C20.2292 19.0021 20.5625 18.4208 21.0479 17.9354C22.4479 16.5375 24.7708 16.4042 26.2875 17.5708C26.4667 16.9396 26.8042 16.3458 27.2979 15.8521C28.7 14.45 31.0208 14.3229 32.5417 15.4896C32.7167 14.8562 33.0542 14.2625 33.5479 13.7687C35.0771 12.2396 37.6854 12.25 39.1875 13.7562L47.0229 22.3625C48.9438 24.475 50.0021 27.2104 50.0021 30.0646C50.0021 33.1208 48.8125 35.9958 46.65 38.1562L43.375 41.4333C41.2042 43.6 38.3271 44.7917 35.2688 44.7917ZM13.5417 16.8417C13.0563 16.8417 12.5708 17.0271 12.2 17.3958C11.45 18.1479 11.45 19.35 12.1875 20.0896L27.8188 35.7208C28.0958 35.9979 28.1938 36.4083 28.0729 36.7792C27.95 37.1521 27.6313 37.425 27.2438 37.4854L16.7958 39.1271C15.5292 39.3104 14.5833 40.4 14.5833 41.6667C14.5833 42.2417 15.0521 42.7083 15.625 42.7083H35.2688C37.7708 42.7083 40.1271 41.7333 41.9 39.9625L45.175 36.6854C46.9417 34.9167 47.9167 32.5646 47.9167 30.0667C47.9167 27.7312 47.0521 25.4958 45.4792 23.7667L37.6792 15.1937C37.0292 14.5479 35.75 14.5167 35.0333 15.2292C34.2938 15.9687 34.2833 17.1479 34.9875 17.8896L35.1125 18.0146C35.5188 18.4208 35.5188 19.0792 35.1146 19.4854C34.7188 19.8854 34.0771 19.8958 33.6646 19.5125H33.6604C33.6604 19.5125 33.6604 19.5125 33.6583 19.5104C33.6583 19.5104 33.6583 19.5104 33.6563 19.5083C33.6542 19.5083 33.6542 19.5062 33.6542 19.5062C33.6563 19.5062 33.6521 19.5062 33.65 19.5042C33.65 19.5042 33.6708 19.5146 33.6458 19.5021L33.6438 19.5C33.6417 19.5 33.6417 19.4979 33.6396 19.4958L31.4646 17.3125C30.7479 16.5958 29.5 16.6 28.7854 17.3125C28.0438 18.0562 28.0354 19.2417 28.7458 19.9833L30.9458 22.1812C31.3521 22.5875 31.3521 23.2479 30.9458 23.6542C30.5396 24.0604 29.8792 24.0604 29.4729 23.6542L27.2979 21.4812C27.2854 21.4708 27.275 21.4583 27.2625 21.4458L25.2146 19.3958C24.4979 18.6792 23.2521 18.6833 22.5354 19.3958C21.7979 20.1354 21.7854 21.3125 22.4875 22.0542L26.7813 26.3479C27.1875 26.7542 27.1875 27.4146 26.7813 27.8208C26.375 28.2271 25.7146 28.2271 25.3083 27.8208L21.05 23.5646C21.0333 23.5479 21.0146 23.5312 21 23.5146L14.8833 17.3979C14.5125 17.0271 14.0271 16.8417 13.5417 16.8417Z" fill="black"/>
<path d="M10.123 27.3771C9.97925 27.3771 9.83342 27.3479 9.69383 27.2854C6.33758 25.7667 4.16675 22.4167 4.16675 18.75C4.16675 13.5812 8.373 9.375 13.5417 9.375C17.2105 9.375 20.5584 11.5458 22.0772 14.9042C22.3126 15.4271 22.0793 16.0458 21.5563 16.2812C21.0292 16.5187 20.4147 16.2854 20.1772 15.7604C18.9959 13.1479 16.3917 11.4583 13.5417 11.4583C9.52092 11.4583 6.25008 14.7292 6.25008 18.75C6.25008 21.6 7.93967 24.2042 10.5522 25.3854C11.0772 25.6229 11.3084 26.2396 11.073 26.7646C10.898 27.1479 10.5209 27.3771 10.123 27.3771Z" fill="black"/>
<path d="M10.3292 31.8583C10.2417 31.8583 10.1521 31.8479 10.0625 31.8229C4.1375 30.25 0 24.8729 0 18.75C0 11.2833 6.075 5.20831 13.5417 5.20831C19.6646 5.20831 25.0417 9.34581 26.6146 15.2687C26.7604 15.825 26.4313 16.3958 25.8771 16.5437C25.3 16.6916 24.7479 16.3583 24.6021 15.8041C23.2708 10.7916 18.7208 7.29165 13.5417 7.29165C7.225 7.29165 2.08333 12.4312 2.08333 18.75C2.08333 23.9312 5.58542 28.4791 10.5958 29.8104C11.1542 29.9583 11.4833 30.5291 11.3354 31.0854C11.2125 31.5521 10.7917 31.8583 10.3292 31.8583Z" fill="black"/>
</g>
<defs>
<clipPath id="clip0_311_214">
<rect width="50" height="50" fill="white"/>
</clipPath>
</defs>
</svg>
