<svg width="181" height="181" viewBox="0 0 181 181" fill="none" xmlns="http://www.w3.org/2000/svg">
<g clip-path="url(#clip0_303_300)">
<path d="M120.667 0C102.898 0 86.3898 7.65479 74.8887 21.1242C67.4904 17.1648 59.27 15.0833 50.9062 15.0833C22.8362 15.0833 0 37.9195 0 65.9896C0 94.0597 22.8362 116.896 50.9062 116.896C51.0571 116.896 51.1928 116.896 51.3437 116.896C55.9139 128.284 66.7664 135.75 79.1875 135.75C90.681 135.75 101.111 129.106 106.141 118.902C110.885 120.071 115.757 120.667 120.667 120.667C153.933 120.667 181 93.5996 181 60.3333C181 27.067 153.933 0 120.667 0ZM120.659 113.125C115.357 113.125 110.116 112.341 105.07 110.78C103.155 110.191 101.089 111.224 100.41 113.125C97.2121 122.145 88.6825 128.208 79.1875 128.208C69.1269 128.208 60.4465 121.655 57.5882 111.911C57.113 110.297 55.0994 109.241 53.3799 109.241C53.2819 109.241 53.1989 109.241 53.0933 109.241C52.3618 109.294 51.6378 109.347 50.8987 109.347C26.9841 109.347 7.53412 89.8891 7.53412 65.982C7.53412 42.075 26.9841 22.6175 50.8987 22.6175C58.9608 22.6175 66.872 24.895 73.7801 29.2013C75.4242 30.2195 77.5811 29.8348 78.7652 28.2963C88.8785 15.106 104.15 7.54167 120.659 7.54167C149.762 7.54167 173.451 31.2225 173.451 60.3333C173.451 89.4442 149.762 113.125 120.659 113.125Z" fill="black"/>
<path d="M52.7917 135.75C44.4732 135.75 37.7084 142.515 37.7084 150.833C37.7084 159.152 44.4732 165.917 52.7917 165.917C61.1102 165.917 67.875 159.152 67.875 150.833C67.875 142.515 61.1102 135.75 52.7917 135.75ZM52.7917 158.375C48.6287 158.375 45.25 154.989 45.25 150.833C45.25 146.678 48.6287 143.292 52.7917 143.292C56.9547 143.292 60.3334 146.678 60.3334 150.833C60.3334 154.989 56.9547 158.375 52.7917 158.375Z" fill="black"/>
<path d="M18.8541 158.375C12.6172 158.375 7.54163 163.451 7.54163 169.688C7.54163 175.924 12.6172 181 18.8541 181C25.0911 181 30.1666 175.924 30.1666 169.688C30.1666 163.451 25.0911 158.375 18.8541 158.375ZM18.8541 173.458C16.7802 173.458 15.0833 171.769 15.0833 169.688C15.0833 167.606 16.7802 165.917 18.8541 165.917C20.9281 165.917 22.625 167.606 22.625 169.688C22.625 171.769 20.9281 173.458 18.8541 173.458Z" fill="black"/>
<path d="M96.933 31.2677C95.4624 29.7971 93.0717 29.7971 91.6011 31.2677L61.4344 61.4344C60.3635 62.5129 60.0392 64.1343 60.6199 65.5446C61.2006 66.9549 62.5807 67.875 64.1041 67.875H67.875V94.2708C67.875 96.3523 69.5643 98.0417 71.6458 98.0417H86.7291C88.8106 98.0417 90.5 96.3523 90.5 94.2708V75.4167H98.0416V94.2708C98.0416 96.3523 99.731 98.0417 101.812 98.0417H116.896C118.977 98.0417 120.667 96.3523 120.667 94.2708V67.875H124.437C125.961 67.875 127.326 66.9549 127.914 65.5446C128.502 64.1343 128.178 62.5129 127.1 61.4344L96.933 31.2677ZM113.125 64.1042V90.5H105.583V71.6458C105.583 69.5643 103.894 67.875 101.812 67.875H86.7291C84.6476 67.875 82.9583 69.5643 82.9583 71.6458V90.5H75.4166V64.1042C75.4166 62.4902 74.3985 61.1101 72.9731 60.5747L94.2708 39.2695L115.568 60.5747C114.143 61.1101 113.125 62.4902 113.125 64.1042Z" fill="black"/>
</g>
<defs>
<clipPath id="clip0_303_300">
<rect width="181" height="181" fill="white"/>
</clipPath>
</defs>
</svg>
