<svg width="26" height="15" viewBox="0 0 26 15" fill="none" xmlns="http://www.w3.org/2000/svg">
<g clip-path="url(#clip0_303_412)">
<path d="M0 0H26V15H0V0Z" fill="#003399"/>
<path d="M12.9984 1.6629L13.2146 2.2384H13.9174L13.3514 2.59429L13.5644 3.1704L12.9984 2.81451L12.4324 3.1704L12.6486 2.5946L12.0826 2.23871H12.7822L12.9984 1.6629ZM10.1095 2.32957L10.3257 2.90507H11.0285L10.4625 3.26096L10.6755 3.83707L10.1095 3.48118L9.54348 3.83707L9.7597 3.26126L9.1937 2.90538H9.89332L10.1095 2.32957ZM7.99099 4.1629L8.20718 4.7384H8.90995L8.34395 5.09429L8.55702 5.6704L7.99099 5.31451L7.42496 5.6704L7.64118 5.0946L7.07518 4.73871H7.7748L7.99099 4.1629ZM7.22062 6.66287L7.4368 7.2384H8.13958L7.57358 7.59432L7.78665 8.17043L7.22062 7.81451L6.65459 8.17043L6.87081 7.59457L6.30481 7.23871H7.00443L7.22062 6.66287ZM7.99099 9.1629L8.20718 9.73843H8.90995L8.34395 10.0943L8.55702 10.6704L7.99099 10.3145L7.42496 10.6704L7.64118 10.0946L7.07518 9.73871H7.7748L7.99099 9.1629ZM10.1095 10.9962L10.3257 11.5718H11.0285L10.4625 11.9276L10.6755 12.5037L10.1095 12.1479L9.54348 12.5037L9.7597 11.9279L9.1937 11.572H9.89332L10.1095 10.9962ZM15.8873 2.32957L16.1035 2.90507H16.8062L16.2402 3.26096L16.4533 3.83707L15.8873 3.48118L15.3212 3.83707L15.5375 3.26126L14.9715 2.90538H15.6711L15.8873 2.32957ZM18.0058 4.1629L18.222 4.7384H18.9248L18.3588 5.09429L18.5718 5.6704L18.0058 5.31451L17.4397 5.6704L17.656 5.0946L17.09 4.73871H17.7896L18.0058 4.1629ZM18.7762 6.6629L18.9924 7.2384H19.6951L19.1291 7.59432L19.3422 8.17043L18.7762 7.81451L18.2101 8.17043L18.4264 7.59457L17.8604 7.23871H18.56L18.7762 6.6629ZM18.0058 9.1629L18.222 9.73843H18.9248L18.3588 10.0943L18.5718 10.6704L18.0058 10.3145L17.4398 10.6704L17.656 10.0946L17.09 9.73871H17.7896L18.0058 9.1629ZM12.9984 11.6629L13.2146 12.2384H13.9174L13.3514 12.5943L13.5644 13.1704L12.9984 12.8145L12.4324 13.1704L12.6486 12.5946L12.0826 12.2387H12.7822L12.9984 11.6629ZM15.8873 10.9962L16.1035 11.5717H16.8062L16.2402 11.9276L16.4533 12.5037L15.8873 12.1478L15.3213 12.5037L15.5375 11.9279L14.9715 11.572H15.6711L15.8873 10.9962Z" fill="#FFCC00"/>
</g>
<defs>
<clipPath id="clip0_303_412">
<rect width="26" height="15" fill="white"/>
</clipPath>
</defs>
</svg>
