<svg width="37" height="37" viewBox="0 0 37 37" fill="none" xmlns="http://www.w3.org/2000/svg">
<path d="M18.4129 4.625C17.0826 4.625 16 3.58746 16 2.3125C16 1.03754 17.0826 0 18.4129 0C19.7433 0 20.8259 1.03754 20.8259 2.3125C20.8259 3.58746 19.7433 4.625 18.4129 4.625ZM18.4129 1.54167C17.969 1.54167 17.6086 1.887 17.6086 2.3125C17.6086 2.738 17.969 3.08333 18.4129 3.08333C18.8569 3.08333 19.2173 2.738 19.2173 2.3125C19.2173 1.887 18.8569 1.54167 18.4129 1.54167Z" fill="black"/>
<path d="M18.4991 32.375C18.0551 32.375 17.6948 32.0297 17.6948 31.6042V6.35325C16.247 7.19037 14.0368 7.53879 11.989 7.86408C9.49239 8.25721 6.67567 8.70429 6.44886 9.86671L11.175 18.9255C11.3005 19.1645 11.286 19.4482 11.1396 19.6748C10.9932 19.9014 10.7343 20.0417 10.456 20.0417H0.804167C0.525874 20.0417 0.266884 19.903 0.120499 19.6763C-0.0258867 19.4497 -0.0403644 19.1645 0.0851089 18.9271L4.83379 9.82662C5.00591 7.40621 8.42104 6.86662 11.7284 6.34246C14.6609 5.87842 17.6948 5.39742 17.6948 3.85421C17.6948 3.42871 18.0551 3.08337 18.4991 3.08337C18.9431 3.08337 19.3034 3.42871 19.3034 3.85421V31.6042C19.3034 32.0297 18.9431 32.375 18.4991 32.375ZM2.10555 18.5H9.15458L5.63006 11.7445L2.10555 18.5Z" fill="black"/>
<path d="M18.4994 27.75C15.3947 27.75 12.8691 25.3296 12.8691 22.3542C12.8691 21.9287 13.2295 21.5834 13.6735 21.5834C14.1174 21.5834 14.4778 21.9287 14.4778 22.3542C14.4778 24.4786 16.2827 26.2084 18.4994 26.2084C20.716 26.2084 22.5209 24.4786 22.5209 22.3542C22.5209 21.9287 22.8813 21.5834 23.3252 21.5834C23.7692 21.5834 24.1296 21.9287 24.1296 22.3542C24.1296 25.3296 21.604 27.75 18.4994 27.75Z" fill="black"/>
<path d="M26.5425 37H10.4562C10.0122 37 9.65186 36.6547 9.65186 36.2292C9.65186 33.2045 13.5383 30.8334 18.4993 30.8334C23.4604 30.8334 27.3468 33.2045 27.3468 36.2292C27.3468 36.6547 26.9865 37 26.5425 37ZM11.4133 35.4584H25.587C24.8953 33.724 21.9305 32.375 18.5009 32.375C15.0713 32.375 12.105 33.724 11.4133 35.4584Z" fill="black"/>
<path d="M5.63021 24.6667C2.52555 24.6667 0 22.2462 0 19.2708C0 18.8453 0.360334 18.5 0.804316 18.5C1.2483 18.5 1.60863 18.8453 1.60863 19.2708C1.60863 21.3952 3.41352 23.125 5.63021 23.125C7.84691 23.125 9.65179 21.3952 9.65179 19.2708C9.65179 18.8453 10.0121 18.5 10.4561 18.5C10.9001 18.5 11.2604 18.8453 11.2604 19.2708C11.2604 22.2462 8.73487 24.6667 5.63021 24.6667Z" fill="black"/>
<path d="M36.1941 20.0417H26.5423C26.264 20.0417 26.005 19.903 25.8586 19.6763C25.7122 19.4497 25.6978 19.1645 25.8232 18.9271L30.5494 9.86671C30.3226 8.70275 27.5059 8.25721 25.0093 7.86254C21.5813 7.32142 17.6948 6.70629 17.6948 3.85421C17.6948 3.42871 18.0552 3.08337 18.4991 3.08337C18.9431 3.08337 19.3035 3.42871 19.3035 3.85421C19.3035 5.39742 22.3373 5.87842 25.2715 6.34246C28.5772 6.86508 31.9923 7.40467 32.1661 9.82662L36.9148 18.9271C37.0402 19.166 37.0258 19.4497 36.8794 19.6763C36.733 19.903 36.4724 20.0417 36.1941 20.0417ZM27.8437 18.5H34.8927L31.3682 11.7445L27.8437 18.5Z" fill="black"/>
<path d="M31.3685 25.6667C28.2638 25.6667 25.7383 23.2462 25.7383 20.2708C25.7383 19.8453 26.0986 19.5 26.5426 19.5C26.9866 19.5 27.3469 19.8453 27.3469 20.2708C27.3469 22.3952 29.1518 24.125 31.3685 24.125C33.5852 24.125 35.3901 22.3952 35.3901 20.2708C35.3901 19.8453 35.7504 19.5 36.1944 19.5C36.6384 19.5 36.9987 19.8453 36.9987 20.2708C36.9987 23.2462 34.4732 25.6667 31.3685 25.6667Z" fill="black"/>
</svg>
