<svg width="34" height="34" viewBox="0 0 34 34" fill="none" xmlns="http://www.w3.org/2000/svg">
<path d="M16.9993 4.25C15.7768 4.25 14.782 3.29658 14.782 2.125C14.782 0.953417 15.7768 0 16.9993 0C18.2218 0 19.2166 0.953417 19.2166 2.125C19.2166 3.29658 18.2218 4.25 16.9993 4.25ZM16.9993 1.41667C16.5913 1.41667 16.2602 1.734 16.2602 2.125C16.2602 2.516 16.5913 2.83333 16.9993 2.83333C17.4073 2.83333 17.7384 2.516 17.7384 2.125C17.7384 1.734 17.4073 1.41667 16.9993 1.41667Z" fill="black"/>
<path d="M16.9992 29.75C16.5912 29.75 16.2601 29.4327 16.2601 29.0417V5.83812C14.9297 6.60737 12.8987 6.92754 11.0169 7.22646C8.72274 7.58771 6.1344 7.99854 5.92598 9.06671L10.2689 17.391C10.3842 17.6106 10.3709 17.8713 10.2364 18.0795C10.1019 18.2878 9.86391 18.4167 9.60818 18.4167H0.738965C0.483236 18.4167 0.245245 18.2892 0.110729 18.081C-0.0237878 17.8727 -0.0370916 17.6106 0.0782082 17.3925L4.44186 9.02987C4.60003 6.80571 7.73825 6.30987 10.7774 5.82821C13.4722 5.40179 16.2601 4.95979 16.2601 3.54171C16.2601 3.15071 16.5912 2.83337 16.9992 2.83337C17.4072 2.83337 17.7383 3.15071 17.7383 3.54171V29.0417C17.7383 29.4327 17.4072 29.75 16.9992 29.75ZM1.93483 17H8.41231L5.17357 10.7922L1.93483 17Z" fill="black"/>
<path d="M16.9994 25.5C14.1465 25.5 11.8257 23.2759 11.8257 20.5417C11.8257 20.1507 12.1568 19.8334 12.5648 19.8334C12.9728 19.8334 13.3039 20.1507 13.3039 20.5417C13.3039 22.4939 14.9624 24.0834 16.9994 24.0834C19.0364 24.0834 20.6949 22.4939 20.6949 20.5417C20.6949 20.1507 21.026 19.8334 21.434 19.8334C21.842 19.8334 22.1731 20.1507 22.1731 20.5417C22.1731 23.2759 19.8523 25.5 16.9994 25.5Z" fill="black"/>
<path d="M24.3903 34H9.60824C9.20026 34 8.86914 33.6827 8.86914 33.2917C8.86914 30.5122 12.4405 28.3334 16.9993 28.3334C21.558 28.3334 25.1294 30.5122 25.1294 33.2917C25.1294 33.6827 24.7983 34 24.3903 34ZM10.4878 32.5834H23.5122C22.8766 30.9896 20.1523 29.75 17.0007 29.75C13.8492 29.75 11.1234 30.9896 10.4878 32.5834Z" fill="black"/>
<path d="M5.17371 22.6667C2.32078 22.6667 0 20.4425 0 17.7083C0 17.3173 0.331117 17 0.739101 17C1.14709 17 1.4782 17.3173 1.4782 17.7083C1.4782 19.6605 3.13675 21.25 5.17371 21.25C7.21067 21.25 8.86922 19.6605 8.86922 17.7083C8.86922 17.3173 9.20033 17 9.60832 17C10.0163 17 10.3474 17.3173 10.3474 17.7083C10.3474 20.4425 8.02664 22.6667 5.17371 22.6667Z" fill="black"/>
<path d="M33.2596 18.4167H24.3904C24.1346 18.4167 23.8966 18.2892 23.7621 18.081C23.6276 17.8727 23.6143 17.6106 23.7296 17.3925L28.0726 9.06671C27.8641 7.99712 25.2758 7.58771 22.9816 7.22504C19.8316 6.72779 16.2603 6.16254 16.2603 3.54171C16.2603 3.15071 16.5914 2.83337 16.9994 2.83337C17.4073 2.83337 17.7385 3.15071 17.7385 3.54171C17.7385 4.95979 20.5263 5.40179 23.2226 5.82821C26.2603 6.30846 29.3985 6.80429 29.5582 9.02987L33.9218 17.3925C34.0371 17.612 34.0238 17.8727 33.8893 18.081C33.7548 18.2892 33.5153 18.4167 33.2596 18.4167ZM25.5862 17H32.0637L28.825 10.7922L25.5862 17Z" fill="black"/>
<path d="M28.8248 22.6667C25.9719 22.6667 23.6511 20.4425 23.6511 17.7083C23.6511 17.3173 23.9822 17 24.3902 17C24.7982 17 25.1293 17.3173 25.1293 17.7083C25.1293 19.6605 26.7879 21.25 28.8248 21.25C30.8618 21.25 32.5203 19.6605 32.5203 17.7083C32.5203 17.3173 32.8515 17 33.2594 17C33.6674 17 33.9985 17.3173 33.9985 17.7083C33.9985 20.4425 31.6778 22.6667 28.8248 22.6667Z" fill="black"/>
</svg>
