<svg width="40" height="40" viewBox="0 0 40 40" fill="none" xmlns="http://www.w3.org/2000/svg">
<path d="M19.9992 5C18.561 5 17.3906 3.87833 17.3906 2.5C17.3906 1.12167 18.561 0 19.9992 0C21.4374 0 22.6078 1.12167 22.6078 2.5C22.6078 3.87833 21.4374 5 19.9992 5ZM19.9992 1.66667C19.5192 1.66667 19.1297 2.04 19.1297 2.5C19.1297 2.96 19.5192 3.33333 19.9992 3.33333C20.4792 3.33333 20.8687 2.96 20.8687 2.5C20.8687 2.04 20.4792 1.66667 19.9992 1.66667Z" fill="black"/>
<path d="M19.999 35C19.5191 35 19.1295 34.6266 19.1295 34.1666V6.86831C17.5644 7.77331 15.1749 8.14998 12.9611 8.50165C10.262 8.92665 7.21695 9.40998 6.97174 10.6666L12.0811 20.46C12.2167 20.7183 12.2011 21.025 12.0428 21.27C11.8846 21.515 11.6046 21.6666 11.3037 21.6666H0.86937C0.568513 21.6666 0.288524 21.5166 0.130269 21.2716C-0.0279856 21.0266 -0.0436372 20.7183 0.0920096 20.4616L5.22572 10.6233C5.4118 8.00665 9.10383 7.42331 12.6793 6.85665C15.8496 6.35498 19.1295 5.83498 19.1295 4.16665C19.1295 3.70665 19.5191 3.33331 19.999 3.33331C20.479 3.33331 20.8686 3.70665 20.8686 4.16665V34.1666C20.8686 34.6266 20.479 35 19.999 35ZM2.27627 20H9.89684L6.08656 12.6966L2.27627 20Z" fill="black"/>
<path d="M19.9993 30C16.6429 30 13.9126 27.3833 13.9126 24.1666C13.9126 23.7066 14.3021 23.3333 14.7821 23.3333C15.2621 23.3333 15.6517 23.7066 15.6517 24.1666C15.6517 26.4633 17.6029 28.3333 19.9993 28.3333C22.3957 28.3333 24.347 26.4633 24.347 24.1666C24.347 23.7066 24.7365 23.3333 25.2165 23.3333C25.6965 23.3333 26.086 23.7066 26.086 24.1666C26.086 27.3833 23.3557 30 19.9993 30Z" fill="black"/>
<path d="M28.6945 40H11.3039C10.8239 40 10.4343 39.6266 10.4343 39.1666C10.4343 35.8966 14.6359 33.3333 19.9992 33.3333C25.3624 33.3333 29.564 35.8966 29.564 39.1666C29.564 39.6266 29.1745 40 28.6945 40ZM12.3386 38.3333H27.6615C26.9137 36.4583 23.7086 35 20.0009 35C16.2932 35 13.0864 36.4583 12.3386 38.3333Z" fill="black"/>
<path d="M6.08672 26.6667C2.73033 26.6667 0 24.05 0 20.8333C0 20.3733 0.38955 20 0.869531 20C1.34951 20 1.73906 20.3733 1.73906 20.8333C1.73906 23.13 3.69029 25 6.08672 25C8.48314 25 10.4344 23.13 10.4344 20.8333C10.4344 20.3733 10.8239 20 11.3039 20C11.7839 20 12.1734 20.3733 12.1734 20.8333C12.1734 24.05 9.4431 26.6667 6.08672 26.6667Z" fill="black"/>
<path d="M39.1288 21.6666H28.6945C28.3936 21.6666 28.1136 21.5166 27.9554 21.2716C27.7971 21.0266 27.7815 20.7183 27.9171 20.4616L33.0265 10.6666C32.7813 9.40831 29.7362 8.92665 27.0372 8.49998C23.3312 7.91498 19.1296 7.24998 19.1296 4.16665C19.1296 3.70665 19.5192 3.33331 19.9992 3.33331C20.4792 3.33331 20.8687 3.70665 20.8687 4.16665C20.8687 5.83498 24.1486 6.35498 27.3206 6.85665C30.8944 7.42165 34.5864 8.00498 34.7742 10.6233L39.9079 20.4616C40.0436 20.72 40.0279 21.0266 39.8697 21.2716C39.7114 21.5166 39.4297 21.6666 39.1288 21.6666ZM30.1014 20H37.7219L33.9117 12.6966L30.1014 20Z" fill="black"/>
<path d="M33.9117 26.6667C30.5553 26.6667 27.825 24.05 27.825 20.8333C27.825 20.3733 28.2145 20 28.6945 20C29.1745 20 29.564 20.3733 29.564 20.8333C29.564 23.13 31.5152 25 33.9117 25C36.3081 25 38.2593 23.13 38.2593 20.8333C38.2593 20.3733 38.6489 20 39.1289 20C39.6088 20 39.9984 20.3733 39.9984 20.8333C39.9984 24.05 37.2681 26.6667 33.9117 26.6667Z" fill="black"/>
</svg>
