<svg width="28" height="28" viewBox="0 0 28 28" fill="none" xmlns="http://www.w3.org/2000/svg">
<path d="M13.7328 4.04393C12.7543 4.04393 11.958 3.28079 11.958 2.34301C11.958 1.40524 12.7543 0.64209 13.7328 0.64209C14.7113 0.64209 15.5076 1.40524 15.5076 2.34301C15.5076 3.28079 14.7113 4.04393 13.7328 4.04393ZM13.7328 1.77604C13.4062 1.77604 13.1412 2.03004 13.1412 2.34301C13.1412 2.65598 13.4062 2.90999 13.7328 2.90999C14.0594 2.90999 14.3244 2.65598 14.3244 2.34301C14.3244 2.03004 14.0594 1.77604 13.7328 1.77604Z" fill="black"/>
<path d="M13.7327 24.455C13.4061 24.455 13.1411 24.201 13.1411 23.8881V5.31514C12.0762 5.93087 10.4505 6.18714 8.94428 6.42641C7.10795 6.71556 5.03616 7.04441 4.86933 7.89941L8.34558 14.5625C8.43787 14.7382 8.42722 14.9469 8.31955 15.1136C8.21188 15.2803 8.02138 15.3835 7.81669 15.3835H0.717469C0.512775 15.3835 0.322279 15.2814 0.214608 15.1147C0.106936 14.948 0.0962872 14.7382 0.188577 14.5636L3.68139 7.86992C3.808 6.08962 6.31994 5.69274 8.7526 5.3072C10.9096 4.96588 13.1411 4.61209 13.1411 3.47701C13.1411 3.16404 13.4061 2.91003 13.7327 2.91003C14.0593 2.91003 14.3243 3.16404 14.3243 3.47701V23.8881C14.3243 24.201 14.0593 24.455 13.7327 24.455ZM1.67468 14.2495H6.85948L4.26708 9.28055L1.67468 14.2495Z" fill="black"/>
<path d="M13.7328 21.0531C11.4492 21.0531 9.59155 19.2728 9.59155 17.0843C9.59155 16.7713 9.85659 16.5173 10.1832 16.5173C10.5097 16.5173 10.7748 16.7713 10.7748 17.0843C10.7748 18.6469 12.1023 19.9192 13.7328 19.9192C15.3632 19.9192 16.6908 18.6469 16.6908 17.0843C16.6908 16.7713 16.9558 16.5173 17.2824 16.5173C17.6089 16.5173 17.874 16.7713 17.874 17.0843C17.874 19.2728 16.0163 21.0531 13.7328 21.0531Z" fill="black"/>
<path d="M19.6487 27.8568H7.8167C7.49014 27.8568 7.2251 27.6028 7.2251 27.2899C7.2251 25.0651 10.0837 23.321 13.7327 23.321C17.3817 23.321 20.2403 25.0651 20.2403 27.2899C20.2403 27.6028 19.9753 27.8568 19.6487 27.8568ZM8.5207 26.7229H18.9459C18.4371 25.4472 16.2565 24.455 13.7339 24.455C11.2113 24.455 9.02948 25.4472 8.5207 26.7229Z" fill="black"/>
<path d="M4.26719 18.7853C1.98361 18.7853 0.125977 17.005 0.125977 14.8165C0.125977 14.5035 0.391014 14.2495 0.717578 14.2495C1.04414 14.2495 1.30918 14.5035 1.30918 14.8165C1.30918 16.3791 2.63673 17.6514 4.26719 17.6514C5.89764 17.6514 7.2252 16.3791 7.2252 14.8165C7.2252 14.5035 7.49023 14.2495 7.8168 14.2495C8.14336 14.2495 8.4084 14.5035 8.4084 14.8165C8.4084 17.005 6.55077 18.7853 4.26719 18.7853Z" fill="black"/>
<path d="M26.748 15.3835H19.6487C19.444 15.3835 19.2535 15.2814 19.1459 15.1147C19.0382 14.948 19.0275 14.7382 19.1198 14.5636L22.5961 7.89941C22.4293 7.04327 20.3575 6.71556 18.5211 6.42527C15.9997 6.02726 13.1411 5.57481 13.1411 3.47701C13.1411 3.16404 13.4062 2.91003 13.7327 2.91003C14.0593 2.91003 14.3243 3.16404 14.3243 3.47701C14.3243 4.61209 16.5558 4.96588 18.714 5.3072C21.1455 5.69161 23.6574 6.08849 23.7852 7.86992L27.278 14.5636C27.3703 14.7394 27.3597 14.948 27.252 15.1147C27.1443 15.2814 26.9526 15.3835 26.748 15.3835ZM20.6059 14.2495H25.7907L23.1983 9.28055L20.6059 14.2495Z" fill="black"/>
<path d="M23.1983 18.7853C20.9148 18.7853 19.0571 17.005 19.0571 14.8165C19.0571 14.5035 19.3222 14.2495 19.6487 14.2495C19.9753 14.2495 20.2403 14.5035 20.2403 14.8165C20.2403 16.3791 21.5679 17.6514 23.1983 17.6514C24.8288 17.6514 26.1563 16.3791 26.1563 14.8165C26.1563 14.5035 26.4214 14.2495 26.748 14.2495C27.0745 14.2495 27.3396 14.5035 27.3396 14.8165C27.3396 17.005 25.4819 18.7853 23.1983 18.7853Z" fill="black"/>
</svg>
