<svg width="75" height="75" viewBox="0 0 75 75" fill="none" xmlns="http://www.w3.org/2000/svg">
<path d="M64.0625 75H10.9375C4.90625 75 0 70.0938 0 64.0625V10.9375C0 4.90625 4.90625 0 10.9375 0H64.0625C70.0938 0 75 4.90625 75 10.9375V64.0625C75 70.0938 70.0938 75 64.0625 75ZM10.9375 3.125C6.63125 3.125 3.125 6.63125 3.125 10.9375V64.0625C3.125 68.3688 6.63125 71.875 10.9375 71.875H64.0625C68.3688 71.875 71.875 68.3688 71.875 64.0625V10.9375C71.875 6.63125 68.3688 3.125 64.0625 3.125H10.9375Z" fill="black"/>
<path d="M45.3125 31.25H10.9375C8.35312 31.25 6.25 29.1469 6.25 26.5625V10.9375C6.25 8.35312 8.35312 6.25 10.9375 6.25H45.3125C47.8969 6.25 50 8.35312 50 10.9375V26.5625C50 29.1469 47.8969 31.25 45.3125 31.25ZM10.9375 9.375C10.075 9.375 9.375 10.075 9.375 10.9375V26.5625C9.375 27.425 10.075 28.125 10.9375 28.125H45.3125C46.175 28.125 46.875 27.425 46.875 26.5625V10.9375C46.875 10.075 46.175 9.375 45.3125 9.375H10.9375Z" fill="black"/>
<path d="M14.0625 50H10.9375C8.35312 50 6.25 47.8969 6.25 45.3125V42.1875C6.25 39.6031 8.35312 37.5 10.9375 37.5H14.0625C16.6469 37.5 18.75 39.6031 18.75 42.1875V45.3125C18.75 47.8969 16.6469 50 14.0625 50ZM10.9375 40.625C10.075 40.625 9.375 41.325 9.375 42.1875V45.3125C9.375 46.175 10.075 46.875 10.9375 46.875H14.0625C14.925 46.875 15.625 46.175 15.625 45.3125V42.1875C15.625 41.325 14.925 40.625 14.0625 40.625H10.9375Z" fill="black"/>
<path d="M29.6875 50H26.5625C23.9781 50 21.875 47.8969 21.875 45.3125V42.1875C21.875 39.6031 23.9781 37.5 26.5625 37.5H29.6875C32.2719 37.5 34.375 39.6031 34.375 42.1875V45.3125C34.375 47.8969 32.2719 50 29.6875 50ZM26.5625 40.625C25.7 40.625 25 41.325 25 42.1875V45.3125C25 46.175 25.7 46.875 26.5625 46.875H29.6875C30.55 46.875 31.25 46.175 31.25 45.3125V42.1875C31.25 41.325 30.55 40.625 29.6875 40.625H26.5625Z" fill="black"/>
<path d="M45.3125 50H42.1875C39.6031 50 37.5 47.8969 37.5 45.3125V42.1875C37.5 39.6031 39.6031 37.5 42.1875 37.5H45.3125C47.8969 37.5 50 39.6031 50 42.1875V45.3125C50 47.8969 47.8969 50 45.3125 50ZM42.1875 40.625C41.325 40.625 40.625 41.325 40.625 42.1875V45.3125C40.625 46.175 41.325 46.875 42.1875 46.875H45.3125C46.175 46.875 46.875 46.175 46.875 45.3125V42.1875C46.875 41.325 46.175 40.625 45.3125 40.625H42.1875Z" fill="black"/>
<path d="M14.0625 65.625H10.9375C8.35312 65.625 6.25 63.5219 6.25 60.9375V57.8125C6.25 55.2281 8.35312 53.125 10.9375 53.125H14.0625C16.6469 53.125 18.75 55.2281 18.75 57.8125V60.9375C18.75 63.5219 16.6469 65.625 14.0625 65.625ZM10.9375 56.25C10.075 56.25 9.375 56.95 9.375 57.8125V60.9375C9.375 61.8 10.075 62.5 10.9375 62.5H14.0625C14.925 62.5 15.625 61.8 15.625 60.9375V57.8125C15.625 56.95 14.925 56.25 14.0625 56.25H10.9375Z" fill="black"/>
<path d="M29.6875 65.625H26.5625C23.9781 65.625 21.875 63.5219 21.875 60.9375V57.8125C21.875 55.2281 23.9781 53.125 26.5625 53.125H29.6875C32.2719 53.125 34.375 55.2281 34.375 57.8125V60.9375C34.375 63.5219 32.2719 65.625 29.6875 65.625ZM26.5625 56.25C25.7 56.25 25 56.95 25 57.8125V60.9375C25 61.8 25.7 62.5 26.5625 62.5H29.6875C30.55 62.5 31.25 61.8 31.25 60.9375V57.8125C31.25 56.95 30.55 56.25 29.6875 56.25H26.5625Z" fill="black"/>
<path d="M45.3125 65.625H42.1875C39.6031 65.625 37.5 63.5219 37.5 60.9375V57.8125C37.5 55.2281 39.6031 53.125 42.1875 53.125H45.3125C47.8969 53.125 50 55.2281 50 57.8125V60.9375C50 63.5219 47.8969 65.625 45.3125 65.625ZM42.1875 56.25C41.325 56.25 40.625 56.95 40.625 57.8125V60.9375C40.625 61.8 41.325 62.5 42.1875 62.5H45.3125C46.175 62.5 46.875 61.8 46.875 60.9375V57.8125C46.875 56.95 46.175 56.25 45.3125 56.25H42.1875Z" fill="black"/>
<path d="M67.1875 59.375H54.6875C53.825 59.375 53.125 58.675 53.125 57.8125V51.5625C53.125 50.7 53.825 50 54.6875 50H67.1875C68.05 50 68.75 50.7 68.75 51.5625V57.8125C68.75 58.675 68.05 59.375 67.1875 59.375ZM56.25 56.25H65.625V53.125H56.25V56.25Z" fill="black"/>
<path d="M67.1875 28.125H54.6875C53.825 28.125 53.125 27.425 53.125 26.5625V20.3125C53.125 19.45 53.825 18.75 54.6875 18.75H67.1875C68.05 18.75 68.75 19.45 68.75 20.3125V26.5625C68.75 27.425 68.05 28.125 67.1875 28.125ZM56.25 25H65.625V21.875H56.25V25Z" fill="black"/>
</svg>
