<svg width="50" height="50" viewBox="0 0 50 50" fill="none" xmlns="http://www.w3.org/2000/svg">
<path d="M5.43478 23.913C4.83478 23.913 4.34783 24.4 4.34783 25C4.34783 25.6 4.83478 26.087 5.43478 26.087C6.03478 26.087 6.52174 25.6 6.52174 25C6.52174 24.4 6.03478 23.913 5.43478 23.913ZM25 6.52174C25.6 6.52174 26.087 6.03478 26.087 5.43478C26.087 4.83478 25.6 4.34783 25 4.34783C24.4 4.34783 23.913 4.83478 23.913 5.43478C23.913 6.03478 24.4 6.52174 25 6.52174ZM25 43.4783C24.4 43.4783 23.913 43.9652 23.913 44.5652C23.913 45.1652 24.4 45.6522 25 45.6522C25.6 45.6522 26.087 45.1652 26.087 44.5652C26.087 43.9652 25.6 43.4783 25 43.4783ZM25 21.7391C24.663 21.7391 24.3435 21.8043 24.037 21.9L20.437 17.1022C20.0739 16.6196 19.3935 16.5261 18.9152 16.8848C18.4348 17.2457 18.337 17.9261 18.6957 18.4065L22.287 23.1957C22.1391 23.4152 22.0283 23.6609 21.9391 23.913H9.78261C9.18261 23.913 8.69565 24.4 8.69565 25C8.69565 25.6 9.18261 26.087 9.78261 26.087H21.9391C22.3891 27.35 23.5848 28.2609 25 28.2609C26.7978 28.2609 28.2609 26.7978 28.2609 25C28.2609 23.2022 26.7978 21.7391 25 21.7391ZM25 26.087C24.4022 26.087 23.913 25.6 23.913 25C23.913 24.4 24.4022 23.913 25 23.913C25.5978 23.913 26.087 24.4 26.087 25C26.087 25.6 25.5978 26.087 25 26.087ZM25 0C11.2152 0 0 11.2152 0 25C0 38.7848 11.2152 50 25 50C38.7848 50 50 38.7848 50 25C50 11.2152 38.7848 0 25 0ZM25 47.8261C12.413 47.8261 2.17391 37.587 2.17391 25C2.17391 12.413 12.413 2.17391 25 2.17391C37.587 2.17391 47.8261 12.413 47.8261 25C47.8261 37.587 37.587 47.8261 25 47.8261ZM44.5652 23.913C43.9652 23.913 43.4783 24.4 43.4783 25C43.4783 25.6 43.9652 26.087 44.5652 26.087C45.1652 26.087 45.6522 25.6 45.6522 25C45.6522 24.4 45.1652 23.913 44.5652 23.913Z" fill="black"/>
</svg>
