<svg width="77" height="91" viewBox="0 0 77 91" fill="none" xmlns="http://www.w3.org/2000/svg">
<g filter="url(#filter0_d_536_223)">
<mask id="path-1-inside-1_536_223" fill="white">
<path d="M20.5167 66.9673C17.9092 66.9673 15.3604 65.7015 13.8145 63.3741C12.8393 61.9112 12.3724 60.2166 12.4623 58.5048C12.2168 58.3457 12.0093 58.1174 11.8675 57.8339L4.91975 43.9384C3.5883 41.2824 3.70934 38.1734 5.23791 35.6246L12.4174 23.6588C13.4168 21.9919 14.9731 20.6951 16.7956 20.0103L42.2003 10.4827C42.6534 10.3167 43.1514 10.3409 43.5802 10.5553L64.3301 20.9302C65.1047 21.3176 65.4748 22.2167 65.1946 23.0363C65.0667 23.4064 62.0234 32.2182 54.6537 44.1355C47.6506 55.4649 38.4066 58.2316 36.546 58.6846L24.6632 65.8122C23.3595 66.5938 21.9277 66.9673 20.5167 66.9673ZM25.3999 31.0527C25.8252 31.0527 26.2506 31.2291 26.5999 31.5057C26.6379 31.5369 30.5112 34.5836 35.8889 34.5836C36.5875 34.5836 37.2204 35.0056 37.4867 35.6523C37.7564 36.299 37.6077 37.0425 37.1132 37.537C34.0249 40.6253 30.8744 45.6883 30.698 46.7707C30.6945 47.7252 29.9268 48.4169 28.9723 48.4169C29.0069 48.4549 27.3296 49.1051 18.0371 55.0223C16.9858 55.6897 16.2665 56.7307 16.0071 57.948C15.7512 59.1688 15.9898 60.4138 16.6815 61.4547C18.051 63.509 20.7726 64.1211 22.8788 62.8519L34.9967 55.5825C35.1661 55.4822 35.3563 55.4096 35.55 55.3681C35.6399 55.3508 44.8874 53.3554 51.7072 42.3233C57.1921 33.4528 60.2458 26.256 61.387 23.3338L42.7018 13.9929L18.0095 23.2508C16.9166 23.6623 15.9829 24.437 15.3811 25.4399L8.20168 37.4056C7.28177 38.9342 7.21261 40.7982 8.01148 42.3925L13.9321 54.2372C14.5269 53.3969 15.2878 52.6741 16.1835 52.1034C17.5599 51.2285 18.7807 50.4573 19.8666 49.7829C19.3859 49.0636 18.8567 48.486 18.5628 48.4134C17.6083 48.4134 16.8717 47.6422 16.8717 46.6877C16.8717 43.7655 13.9978 41.068 13.9701 41.0438C13.4479 40.5596 13.275 39.8057 13.5344 39.1417C13.7938 38.4777 14.4266 38.042 15.1391 38.042C16.5673 37.8794 23.2073 34.1271 23.816 32.6435C23.816 31.9795 24.1825 31.4815 24.7843 31.1945C24.9814 31.0977 25.1889 31.0527 25.3999 31.0527ZM20.2159 45.3701C21.3329 45.9477 22.2182 47.0266 22.82 47.9673C25.2788 46.4871 26.6829 45.7332 27.5336 45.3528C28.2772 43.2882 30.3383 40.1965 32.358 37.6961C29.6432 37.1635 27.4714 36.1226 26.0915 35.3133C24.2967 37.4056 20.7588 39.4599 18.1132 40.5942C18.9847 41.815 19.9046 43.4819 20.2159 45.3701Z"/>
</mask>
<path d="M20.5167 66.9673C17.9092 66.9673 15.3604 65.7015 13.8145 63.3741C12.8393 61.9112 12.3724 60.2166 12.4623 58.5048C12.2168 58.3457 12.0093 58.1174 11.8675 57.8339L4.91975 43.9384C3.5883 41.2824 3.70934 38.1734 5.23791 35.6246L12.4174 23.6588C13.4168 21.9919 14.9731 20.6951 16.7956 20.0103L42.2003 10.4827C42.6534 10.3167 43.1514 10.3409 43.5802 10.5553L64.3301 20.9302C65.1047 21.3176 65.4748 22.2167 65.1946 23.0363C65.0667 23.4064 62.0234 32.2182 54.6537 44.1355C47.6506 55.4649 38.4066 58.2316 36.546 58.6846L24.6632 65.8122C23.3595 66.5938 21.9277 66.9673 20.5167 66.9673ZM25.3999 31.0527C25.8252 31.0527 26.2506 31.2291 26.5999 31.5057C26.6379 31.5369 30.5112 34.5836 35.8889 34.5836C36.5875 34.5836 37.2204 35.0056 37.4867 35.6523C37.7564 36.299 37.6077 37.0425 37.1132 37.537C34.0249 40.6253 30.8744 45.6883 30.698 46.7707C30.6945 47.7252 29.9268 48.4169 28.9723 48.4169C29.0069 48.4549 27.3296 49.1051 18.0371 55.0223C16.9858 55.6897 16.2665 56.7307 16.0071 57.948C15.7512 59.1688 15.9898 60.4138 16.6815 61.4547C18.051 63.509 20.7726 64.1211 22.8788 62.8519L34.9967 55.5825C35.1661 55.4822 35.3563 55.4096 35.55 55.3681C35.6399 55.3508 44.8874 53.3554 51.7072 42.3233C57.1921 33.4528 60.2458 26.256 61.387 23.3338L42.7018 13.9929L18.0095 23.2508C16.9166 23.6623 15.9829 24.437 15.3811 25.4399L8.20168 37.4056C7.28177 38.9342 7.21261 40.7982 8.01148 42.3925L13.9321 54.2372C14.5269 53.3969 15.2878 52.6741 16.1835 52.1034C17.5599 51.2285 18.7807 50.4573 19.8666 49.7829C19.3859 49.0636 18.8567 48.486 18.5628 48.4134C17.6083 48.4134 16.8717 47.6422 16.8717 46.6877C16.8717 43.7655 13.9978 41.068 13.9701 41.0438C13.4479 40.5596 13.275 39.8057 13.5344 39.1417C13.7938 38.4777 14.4266 38.042 15.1391 38.042C16.5673 37.8794 23.2073 34.1271 23.816 32.6435C23.816 31.9795 24.1825 31.4815 24.7843 31.1945C24.9814 31.0977 25.1889 31.0527 25.3999 31.0527ZM20.2159 45.3701C21.3329 45.9477 22.2182 47.0266 22.82 47.9673C25.2788 46.4871 26.6829 45.7332 27.5336 45.3528C28.2772 43.2882 30.3383 40.1965 32.358 37.6961C29.6432 37.1635 27.4714 36.1226 26.0915 35.3133C24.2967 37.4056 20.7588 39.4599 18.1132 40.5942C18.9847 41.815 19.9046 43.4819 20.2159 45.3701Z" fill="black"/>
<path d="M13.8145 63.3741L55.4646 35.7105L55.4408 35.6748L55.417 35.6391L13.8145 63.3741ZM12.4623 58.5048L62.3935 61.1274L63.9098 32.2601L39.6494 16.5421L12.4623 58.5048ZM11.8675 57.8339L56.5889 35.4732V35.4732L11.8675 57.8339ZM4.91975 43.9384L49.6411 21.5777L49.6295 21.5544L49.6178 21.5311L4.91975 43.9384ZM5.23791 35.6246L-37.6367 9.8998L-37.6419 9.90836L5.23791 35.6246ZM12.4174 23.6588L55.292 49.3836L55.2959 49.3771L55.2999 49.3705L12.4174 23.6588ZM16.7956 20.0103L-0.761981 -26.8056L-0.775882 -26.8004L-0.789781 -26.7952L16.7956 20.0103ZM42.2003 10.4827L24.9981 -36.465L24.8202 -36.3998L24.6428 -36.3333L42.2003 10.4827ZM43.5802 10.5553L65.9409 -34.1661H65.9409L43.5802 10.5553ZM64.3301 20.9302L41.9694 65.6516L64.3301 20.9302ZM65.1946 23.0363L112.449 39.3767L112.479 39.2917L112.508 39.2066L65.1946 23.0363ZM54.6537 44.1355L12.1281 17.8377L12.123 17.8459L54.6537 44.1355ZM36.546 58.6846L24.7169 10.104L17.3388 11.9006L10.8267 15.8067L36.546 58.6846ZM24.6632 65.8122L50.3713 108.697L50.3825 108.69L24.6632 65.8122ZM26.5999 31.5057L58.2618 -7.19212L57.9553 -7.44284L57.645 -7.68868L26.5999 31.5057ZM37.4867 35.6523L-8.74725 54.6898L-8.7038 54.7952L-8.65988 54.9006L37.4867 35.6523ZM30.698 46.7707L-18.6512 38.7298L-19.2873 42.634L-19.3017 46.5896L30.698 46.7707ZM28.9723 48.4169V-1.58311H-84.0553L-8.0247 82.0505L28.9723 48.4169ZM18.0371 55.0223L44.836 97.2339L44.8645 97.2158L44.8931 97.1976L18.0371 55.0223ZM16.0071 57.948L-32.8952 47.5285L-32.9123 47.6089L-32.9292 47.6894L16.0071 57.948ZM16.6815 61.4547L-24.9636 89.1258L-24.9423 89.1578L-24.9211 89.1897L16.6815 61.4547ZM22.8788 62.8519L-2.84243 19.9751L-2.8856 20.001L-2.92871 20.0269L22.8788 62.8519ZM34.9967 55.5825L9.53063 12.5537L9.40284 12.6293L9.27549 12.7057L34.9967 55.5825ZM35.55 55.3681L26.1076 6.26777L25.5895 6.36741L25.0735 6.47797L35.55 55.3681ZM51.7072 42.3233L9.1802 16.0279L9.17751 16.0322L51.7072 42.3233ZM61.387 23.3338L107.961 41.5226L124.562 -0.98438L83.7444 -21.3893L61.387 23.3338ZM42.7018 13.9929L65.0592 -30.7302L45.5604 -40.4777L25.1485 -32.8247L42.7018 13.9929ZM18.0095 23.2508L0.456157 -23.5668L0.422264 -23.5541L0.38839 -23.5413L18.0095 23.2508ZM15.3811 25.4399L58.2558 51.1647L15.3811 25.4399ZM8.20168 37.4056L51.0421 63.1874L51.0592 63.1589L51.0763 63.1304L8.20168 37.4056ZM8.01148 42.3925L52.7354 20.037L52.7244 20.015L52.7134 19.993L8.01148 42.3925ZM13.9321 54.2372L-30.7919 76.5927L6.52447 151.247L54.7432 83.1241L13.9321 54.2372ZM16.1835 52.1034L-10.6397 9.90728L-10.6606 9.92052L-10.6814 9.93378L16.1835 52.1034ZM19.8666 49.7829L46.2448 92.2587L90.1626 64.9849L61.4383 22.0018L19.8666 49.7829ZM18.5628 48.4134L30.5551 -0.127106L24.6478 -1.58657H18.5628V48.4134ZM13.9701 41.0438L-20.0245 77.7094L-19.4967 78.1987L-18.9551 78.6726L13.9701 41.0438ZM15.1391 38.042V88.042H17.9749L20.7926 87.7213L15.1391 38.042ZM23.816 32.6435L70.0744 51.6213L73.816 42.5013V32.6435H23.816ZM24.7843 31.1945L46.3112 76.3231L46.571 76.1992L46.8295 76.0722L24.7843 31.1945ZM20.2159 45.3701L-29.1184 53.5021L-25.0374 78.2606L-2.74781 89.7849L20.2159 45.3701ZM22.82 47.9673L-19.2992 74.9112L6.92057 115.898L48.6067 90.8047L22.82 47.9673ZM27.5336 45.3528L47.9438 90.9974L67.3669 82.3123L74.576 62.2944L27.5336 45.3528ZM32.358 37.6961L71.254 69.1142L123.367 4.59714L41.9834 -11.3686L32.358 37.6961ZM26.0915 35.3133L51.3858 -7.81667L15.3456 -28.953L-11.858 2.75828L26.0915 35.3133ZM18.1132 40.5942L-1.59001 -5.35996L-58.6584 19.1086L-22.5813 69.6452L18.1132 40.5942ZM20.5167 16.9673C33.9995 16.9673 47.3861 23.5476 55.4646 35.7105L-27.8355 91.0376C-16.6653 107.855 1.81886 116.967 20.5167 116.967V16.9673ZM55.417 35.6391C60.313 42.983 62.8778 51.9066 62.3935 61.1274L-37.4688 55.8821C-38.133 68.5267 -34.6344 80.8394 -27.788 91.1091L55.417 35.6391ZM39.6494 16.5421C46.9643 21.2814 52.7779 27.8513 56.5889 35.4732L-32.8539 80.1945C-28.7594 88.3836 -22.5307 95.41 -14.7247 100.467L39.6494 16.5421ZM56.5889 35.4732L49.6411 21.5777L-39.8016 66.2991L-32.8539 80.1945L56.5889 35.4732ZM49.6178 21.5311C55.9768 34.216 55.3631 49.2596 48.1177 61.3408L-37.6419 9.90836C-47.9445 27.0871 -48.8002 48.3488 -39.7783 66.3456L49.6178 21.5311ZM48.1126 61.3494L55.292 49.3836L-30.4573 -2.06595L-37.6367 9.8998L48.1126 61.3494ZM55.2999 49.3705C50.4805 57.4084 43.1114 63.5357 34.381 66.8158L-0.789781 -26.7952C-13.1652 -22.1456 -23.6469 -13.4245 -30.4651 -2.05287L55.2999 49.3705ZM34.3532 66.8263L59.7579 57.2986L24.6428 -36.3333L-0.761981 -26.8056L34.3532 66.8263ZM59.4025 57.4304C47.2459 61.8847 33.4121 61.3729 21.2195 55.2767L65.9409 -34.1661C52.8907 -40.6912 38.0609 -41.2514 24.9981 -36.465L59.4025 57.4304ZM21.2195 55.2767L41.9694 65.6516L86.6907 -23.7911L65.9409 -34.1661L21.2195 55.2767ZM41.9694 65.6516C20.4298 54.8818 10.0427 29.8022 17.8816 6.86607L112.508 39.2066C120.907 14.6313 109.78 -12.2467 86.6907 -23.7911L41.9694 65.6516ZM17.9401 6.69598C17.9389 6.69936 17.952 6.66139 17.9678 6.61616C17.9828 6.57338 17.9969 6.53331 18.01 6.49632C18.0362 6.42249 18.0539 6.37375 18.0628 6.34927C18.0805 6.30096 18.0594 6.36045 17.9972 6.51866C17.8719 6.83732 17.5832 7.54893 17.1148 8.58023C16.17 10.6606 14.545 13.9294 12.1281 17.8377L97.1793 70.4333C107.043 54.4821 111.52 42.0643 112.449 39.3767L17.9401 6.69598ZM12.123 17.8459C12.9906 16.4424 14.5901 14.722 16.9266 13.2428C19.0535 11.8963 21.5821 10.8673 24.7169 10.104L48.3751 107.265C58.2049 104.872 81.052 96.5237 97.1844 70.4251L12.123 17.8459ZM10.8267 15.8067L-1.05604 22.9342L50.3825 108.69L62.2653 101.563L10.8267 15.8067ZM-1.04481 22.9275C5.56931 18.9625 13.0498 16.9673 20.5167 16.9673V116.967C30.8056 116.967 41.1496 114.225 50.3713 108.697L-1.04481 22.9275ZM25.3999 81.0527C12.2403 81.0527 2.03673 75.8344 -4.44519 70.7002L57.645 -7.68868C50.4645 -13.3762 39.4102 -18.9473 25.3999 -18.9473V81.0527ZM-5.06199 70.2036C-1.81806 72.8577 13.2704 84.5836 35.8889 84.5836V-15.4164C42.5355 -15.4164 47.524 -13.5847 50.3361 -12.2762C51.8556 -11.5692 53.1678 -10.8163 54.2911 -10.0963C55.1917 -9.51908 56.547 -8.59516 58.2618 -7.19212L-5.06199 70.2036ZM35.8889 84.5836C16.4082 84.5836 -1.26797 72.8537 -8.74725 54.6898L83.7206 16.6148C75.7087 -2.84258 56.7668 -15.4164 35.8889 -15.4164V84.5836ZM-8.65988 54.9006C-16.224 36.766 -12.0217 15.9612 1.75782 2.1817L72.4685 72.8924C87.2371 58.1238 91.7368 35.8319 83.6332 16.404L-8.65988 54.9006ZM1.75782 2.1817C-2.87966 6.81918 -6.47522 11.713 -8.74244 15.1015C-9.9691 16.9348 -11.3031 19.0702 -12.5497 21.3546C-13.1558 22.4652 -14.0097 24.1004 -14.8743 26.067C-15.2886 27.0093 -17.5587 32.0249 -18.6512 38.7298L80.0472 54.8117C79.4277 58.6134 78.4942 61.4857 78.0388 62.8077C77.5046 64.3583 76.9967 65.5686 76.6695 66.3128C76.0231 67.7832 75.4683 68.8212 75.2307 69.2566C74.7209 70.1908 74.4006 70.6644 74.3697 70.7106C74.2959 70.8209 74.2079 70.9471 74.0466 71.1509C73.9282 71.3007 73.4138 71.9471 72.4685 72.8924L1.75782 2.1817ZM-19.3017 46.5896C-19.1951 17.1849 5.28636 -1.58311 28.9723 -1.58311V98.4169C54.5672 98.4169 80.5842 78.2656 80.6977 46.9519L-19.3017 46.5896ZM-8.0247 82.0505C-14.0737 75.3966 -18.8022 66.5517 -20.429 56.1288C-21.9829 46.1735 -20.2563 37.7342 -18.2337 31.9402C-14.6448 21.659 -8.62972 15.3783 -6.97386 13.6659C-2.84708 9.39809 1.16701 6.86428 1.54245 6.61813C2.75315 5.82436 3.73092 5.26111 4.08396 5.05893C4.5298 4.8036 4.88001 4.61257 5.02629 4.53311C5.09836 4.49396 5.90497 4.06214 5.0498 4.51837C4.29812 4.9194 3.33505 5.44691 2.0701 6.17459C-0.351688 7.56776 -3.76415 9.62827 -8.81884 12.8469L44.8931 97.1976C49.1309 94.4991 51.2033 93.2759 51.9346 92.8552C52.2462 92.6759 52.2768 92.664 52.1202 92.7475C51.5627 93.0449 52.5672 92.5099 52.7607 92.4048C52.9373 92.3088 53.3131 92.1036 53.7801 91.8362C54.1543 91.6219 55.1488 91.0486 56.3721 90.2465C56.7602 89.9921 60.7829 87.4517 64.9145 83.1789C66.5729 81.4639 72.5894 75.1811 76.179 64.8981C78.202 59.1032 79.9286 50.663 78.3746 40.707C76.7477 30.2834 72.0189 21.4378 65.9693 14.7832L-8.0247 82.0505ZM-8.76172 12.8106C-21.2397 20.7325 -29.8587 33.2774 -32.8952 47.5285L64.9094 68.3675C62.3917 80.1839 55.2112 90.647 44.836 97.2339L-8.76172 12.8106ZM-32.9292 47.6894C-35.932 62.0135 -33.0715 76.9234 -24.9636 89.1258L58.3265 33.7836C65.0511 43.9042 67.4343 56.3241 64.9434 68.2066L-32.9292 47.6894ZM-24.9211 89.1897C-8.79568 113.378 23.5813 120.806 48.6862 105.677L-2.92871 20.0269C17.964 7.43641 44.8976 13.6401 58.284 33.7197L-24.9211 89.1897ZM48.5999 105.729L60.7179 98.4593L9.27549 12.7057L-2.84243 19.9751L48.5999 105.729ZM60.4627 98.6113C55.7371 101.408 50.8238 103.23 46.0265 104.258L25.0735 6.47797C19.8888 7.58898 14.5952 9.55627 9.53063 12.5537L60.4627 98.6113ZM44.9924 104.468C53.4976 102.833 77.631 95.4771 94.237 68.6144L9.17751 16.0322C10.5521 13.8086 12.7848 11.6371 15.6329 9.95091C16.9745 9.15667 18.4058 8.49336 19.9286 7.93455C20.6953 7.6532 21.5082 7.38987 22.3751 7.14455C22.8087 7.02183 23.2646 6.90113 23.7448 6.7832C23.9049 6.74387 24.8449 6.5106 26.1076 6.26777L44.9924 104.468ZM94.2343 68.6188C101.658 56.6132 105.988 46.5748 107.961 41.5226L14.8127 5.14497C14.5033 5.93724 12.7266 10.2924 9.1802 16.0279L94.2343 68.6188ZM83.7444 -21.3893L65.0592 -30.7302L20.3444 58.7159L39.0297 68.0568L83.7444 -21.3893ZM25.1485 -32.8247L0.456157 -23.5668L35.5627 70.0683L60.2551 60.8104L25.1485 -32.8247ZM0.38839 -23.5413C-11.1714 -19.1881 -21.0434 -11.0351 -27.4935 -0.28492L58.2558 51.1647C53.0092 59.909 45.0047 66.5127 35.6305 70.0428L0.38839 -23.5413ZM-27.4935 -0.284921L-34.673 11.6808L51.0763 63.1304L58.2558 51.1647L-27.4935 -0.284921ZM-34.6387 11.6238C-44.424 27.8835 -45.1388 47.932 -36.6905 64.792L52.7134 19.993C59.564 33.6645 58.9875 49.9849 51.0421 63.1874L-34.6387 11.6238ZM-36.7125 64.748L-30.7919 76.5927L58.6561 31.8818L52.7354 20.037L-36.7125 64.748ZM54.7432 83.1241C51.5101 87.6918 47.4944 91.4406 43.0483 94.2731L-10.6814 9.93378C-16.9189 13.9075 -22.4563 19.1019 -26.879 25.3503L54.7432 83.1241ZM43.0067 94.2996C44.3341 93.4558 45.3819 92.7946 46.2448 92.2587L-6.51167 7.30718C-7.82054 8.12001 -9.21431 9.00117 -10.6397 9.90728L43.0067 94.2996ZM61.4383 22.0018C60.0787 19.9673 58.1345 17.3279 55.5509 14.5834C54.2884 13.2423 52.1701 11.123 49.2738 8.89904C47.2574 7.35082 40.6236 2.36039 30.5551 -0.127106L6.57042 96.954C1.08404 95.5985 -3.0626 93.578 -5.56703 92.189C-8.20402 90.7265 -10.2451 89.2765 -11.6279 88.2147C-14.3274 86.142 -16.2282 84.2256 -17.2616 83.1279C-19.387 80.8702 -20.8263 78.8792 -21.7052 77.564L61.4383 22.0018ZM18.5628 -1.58657C46.5372 -1.58657 66.8717 21.3613 66.8717 46.6877H-33.1283C-33.1283 73.9232 -11.3206 98.4134 18.5628 98.4134V-1.58657ZM66.8717 46.6877C66.8717 30.029 59.3113 18.3198 56.5397 14.3167C53.2216 9.52434 49.646 5.82177 46.8954 3.41493L-18.9551 78.6726C-19.4382 78.2499 -19.8202 77.8977 -19.821 77.8969C-19.933 77.7942 -20.023 77.7108 -20.0774 77.6602C-20.1917 77.5539 -20.2864 77.4648 -20.354 77.4009C-20.4949 77.2678 -20.6209 77.1472 -20.7306 77.0412C-20.9533 76.8261 -21.1669 76.6154 -21.3725 76.4084C-21.7821 75.996 -22.2041 75.5539 -22.6344 75.0786C-23.4484 74.1793 -24.5265 72.903 -25.6771 71.2413C-26.7778 69.6514 -28.4316 67.0124 -29.9006 63.3965C-31.3519 59.8243 -33.1283 54.0542 -33.1283 46.6877H66.8717ZM47.9647 4.37816C62.5128 17.8664 67.3186 38.8731 60.1073 57.3342L-33.0385 20.9492C-40.7686 40.7383 -35.6169 63.2528 -20.0245 77.7094L47.9647 4.37816ZM60.1073 57.3342C52.9395 75.6836 35.1999 88.042 15.1391 88.042V-11.958C-6.34662 -11.958 -25.352 1.27182 -33.0385 20.9492L60.1073 57.3342ZM20.7926 87.7213C27.4998 86.958 32.6243 84.9551 33.6153 84.5795C35.6495 83.8086 37.3691 83.0258 38.5621 82.456C41.003 81.29 43.3579 79.9984 45.4284 78.7615C47.4022 77.5823 50.1191 75.8567 52.9272 73.6925C54.2901 72.642 56.4822 70.8719 58.8489 68.4827C60.2494 67.069 66.1608 61.1608 70.0744 51.6213L-22.4425 13.6657C-20.3033 8.45143 -17.7322 4.75332 -16.2514 2.79456C-14.6369 0.658945 -13.1593 -0.919691 -12.195 -1.89312C-10.3135 -3.79251 -8.7512 -5.02482 -8.11864 -5.51235C-6.77143 -6.55069 -5.91783 -7.04981 -5.85864 -7.08517C-5.70277 -7.17829 -5.31375 -7.40865 -4.53852 -7.77894C-4.17836 -7.95097 -3.2166 -8.40241 -1.82126 -8.93118C-1.46919 -9.0646 3.13542 -10.9147 9.48547 -11.6374L20.7926 87.7213ZM73.816 32.6435C73.816 41.9477 71.1061 51.6015 65.3129 60.0512C59.7063 68.2287 52.5667 73.3392 46.3112 76.3231L3.25741 -13.9341C-11.9442 -6.68278 -26.184 9.79055 -26.184 32.6435H73.816ZM46.8295 76.0722C39.8512 79.5001 32.4732 81.0527 25.3999 81.0527V-18.9473C17.9046 -18.9473 10.1116 -17.3048 2.73909 -13.6832L46.8295 76.0722ZM-2.74781 89.7849C-8.50087 86.8104 -12.3542 83.2715 -14.5533 80.9548C-16.8302 78.556 -18.3609 76.3781 -19.2992 74.9112L64.9392 21.0234C62.6352 17.4218 55.9268 7.54606 43.1795 0.955362L-2.74781 89.7849ZM48.6067 90.8047C49.0308 90.5494 49.3469 90.3631 49.5708 90.2332C49.7972 90.1018 49.8984 90.046 49.8957 90.0475C49.892 90.0495 49.8526 90.0712 49.781 90.1093C49.7098 90.1471 49.5969 90.2064 49.4468 90.2827C49.1643 90.4263 48.6467 90.6831 47.9438 90.9974L7.12348 -0.29173C3.32214 1.40805 -0.270455 3.50679 -2.96682 5.12991L48.6067 90.8047ZM74.576 62.2944C73.699 64.7297 72.8347 66.4145 72.4619 67.1155C72.027 67.9332 71.6992 68.4557 71.5693 68.6586C71.3343 69.0254 71.2588 69.1083 71.254 69.1142L-6.53806 6.27801C-9.22134 9.59995 -15.789 18.0826 -19.5087 28.4113L74.576 62.2944ZM41.9834 -11.3686C46.2328 -10.535 49.3711 -8.99823 51.3858 -7.81667L0.797229 78.4434C5.57167 81.2434 13.0537 84.8621 22.7325 86.7609L41.9834 -11.3686ZM-11.858 2.75828C-9.78725 0.344387 -7.94788 -1.23615 -6.93426 -2.05387C-5.83917 -2.9373 -4.96591 -3.52389 -4.43959 -3.85912C-3.48879 -4.46472 -2.628 -4.91491 -1.59001 -5.35996L37.8164 86.5483C42.7288 84.4421 54.7383 78.7126 64.0411 67.8684L-11.858 2.75828ZM-22.5813 69.6452C-23.5167 68.3348 -24.7307 66.4424 -25.8916 63.9678C-27.0476 61.5039 -28.3819 57.9703 -29.1184 53.5021L69.5501 37.2381C67.5258 24.9574 62.0639 16.1044 58.8077 11.5432L-22.5813 69.6452Z" fill="black" mask="url(#path-1-inside-1_536_223)"/>
<mask id="path-3-inside-2_536_223" fill="white">
<path d="M18.5973 76.0834C17.6428 76.0834 16.8682 75.3087 16.8682 74.3542V65.7085C16.8682 64.754 17.6428 63.9793 18.5973 63.9793C19.5518 63.9793 20.3265 64.754 20.3265 65.7085V74.3542C20.3265 75.3087 19.5518 76.0834 18.5973 76.0834Z"/>
</mask>
<path d="M18.5973 76.0834C17.6428 76.0834 16.8682 75.3087 16.8682 74.3542V65.7085C16.8682 64.754 17.6428 63.9793 18.5973 63.9793C19.5518 63.9793 20.3265 64.754 20.3265 65.7085V74.3542C20.3265 75.3087 19.5518 76.0834 18.5973 76.0834Z" fill="black"/>
<path d="M18.5973 66.0834C23.1657 66.0834 26.8682 69.7859 26.8682 74.3542H6.86816C6.86816 80.8316 12.12 86.0834 18.5973 86.0834V66.0834ZM26.8682 74.3542V65.7085H6.86816V74.3542H26.8682ZM26.8682 65.7085C26.8682 70.2768 23.1657 73.9793 18.5973 73.9793V53.9793C12.12 53.9793 6.86816 59.2311 6.86816 65.7085H26.8682ZM18.5973 73.9793C14.029 73.9793 10.3265 70.2768 10.3265 65.7085H30.3265C30.3265 59.2311 25.0747 53.9793 18.5973 53.9793V73.9793ZM10.3265 65.7085V74.3542H30.3265V65.7085H10.3265ZM10.3265 74.3542C10.3265 69.7859 14.029 66.0834 18.5973 66.0834V86.0834C25.0747 86.0834 30.3265 80.8316 30.3265 74.3542H10.3265Z" fill="black" mask="url(#path-3-inside-2_536_223)"/>
<mask id="path-5-inside-3_536_223" fill="white">
<path d="M67.0103 25.5332C66.2045 25.5332 65.4264 25.3465 64.6932 24.9799L38.5726 11.9213C38.1057 11.6896 37.7703 11.2573 37.6562 10.7455C37.542 10.2337 37.6665 9.7011 37.9951 9.29302L44.9117 0.647246C45.3993 0.0420413 46.2328 -0.165457 46.9417 0.138874L71.1499 10.5138C71.7897 10.787 72.2012 11.413 72.2012 12.1046V20.3423C72.2012 21.7671 71.641 23.0882 70.6208 24.0704C69.6594 25.0007 68.3418 25.5332 67.0103 25.5332ZM42.0344 9.7841L66.2426 21.8882C66.9066 22.2236 67.702 22.0784 68.2242 21.5804C68.4593 21.3521 68.7429 20.951 68.7429 20.3423V13.2424L46.793 3.83581L42.0344 9.7841Z"/>
</mask>
<path d="M67.0103 25.5332C66.2045 25.5332 65.4264 25.3465 64.6932 24.9799L38.5726 11.9213C38.1057 11.6896 37.7703 11.2573 37.6562 10.7455C37.542 10.2337 37.6665 9.7011 37.9951 9.29302L44.9117 0.647246C45.3993 0.0420413 46.2328 -0.165457 46.9417 0.138874L71.1499 10.5138C71.7897 10.787 72.2012 11.413 72.2012 12.1046V20.3423C72.2012 21.7671 71.641 23.0882 70.6208 24.0704C69.6594 25.0007 68.3418 25.5332 67.0103 25.5332ZM42.0344 9.7841L66.2426 21.8882C66.9066 22.2236 67.702 22.0784 68.2242 21.5804C68.4593 21.3521 68.7429 20.951 68.7429 20.3423V13.2424L46.793 3.83581L42.0344 9.7841Z" fill="black"/>
<path d="M64.6932 24.9799L69.1654 16.0356L69.1649 16.0354L64.6932 24.9799ZM38.5726 11.9213L43.0443 2.97683L43.0312 2.97031L43.0182 2.96383L38.5726 11.9213ZM37.9951 9.29302L45.7844 15.5641L45.7941 15.552L45.8038 15.54L37.9951 9.29302ZM44.9117 0.647246L37.1248 -5.6268L37.1139 -5.61327L37.103 -5.5997L44.9117 0.647246ZM46.9417 0.138874L42.9971 9.32801L43.0025 9.33032L46.9417 0.138874ZM71.1499 10.5138L67.2107 19.7053L67.2227 19.7104L71.1499 10.5138ZM70.6208 24.0704L63.6853 16.8663L63.6761 16.8751L63.667 16.8839L70.6208 24.0704ZM42.0344 9.7841L34.2257 3.53715L26.4983 13.1964L37.5623 18.7284L42.0344 9.7841ZM66.2426 21.8882L70.7519 12.9626L70.7333 12.9532L70.7147 12.9439L66.2426 21.8882ZM68.2242 21.5804L75.1255 28.8172L75.1574 28.7868L75.1889 28.7562L68.2242 21.5804ZM68.7429 13.2424H78.7429V6.64831L72.6819 4.05089L68.7429 13.2424ZM46.793 3.83581L50.732 -5.35572L43.7379 -8.35306L38.9843 -2.41114L46.793 3.83581ZM67.0103 15.5332C67.7961 15.5332 68.5454 15.7257 69.1654 16.0356L60.2211 33.9242C62.3074 34.9673 64.6129 35.5332 67.0103 35.5332V15.5332ZM69.1649 16.0354L43.0443 2.97683L34.101 20.8658L60.2216 33.9244L69.1649 16.0354ZM43.0182 2.96383C45.2987 4.09566 46.8841 6.18141 47.4165 8.56923L27.8959 12.9218C28.6565 16.3333 30.9128 19.2836 34.127 20.8788L43.0182 2.96383ZM47.4165 8.56923C47.9648 11.0281 47.3624 13.6041 45.7844 15.5641L30.2058 3.02195C27.9707 5.79811 27.1193 9.43925 27.8959 12.9218L47.4165 8.56923ZM45.8038 15.54L52.7204 6.8942L37.103 -5.5997L30.1864 3.04607L45.8038 15.54ZM52.6986 6.92129C50.3871 9.79024 46.4319 10.8024 42.9971 9.328L50.8863 -9.05026C46.0337 -11.1333 40.4116 -9.70615 37.1248 -5.6268L52.6986 6.92129ZM43.0025 9.33032L67.2107 19.7053L75.0891 1.32235L50.8809 -9.05258L43.0025 9.33032ZM67.2227 19.7104C64.1749 18.4089 62.2012 15.4133 62.2012 12.1046H82.2012C82.2012 7.41266 79.4045 3.16513 75.0771 1.31722L67.2227 19.7104ZM62.2012 12.1046V20.3423H82.2012V12.1046H62.2012ZM62.2012 20.3423C62.2012 19.0664 62.7349 17.7812 63.6853 16.8663L77.5563 31.2745C80.547 28.3952 82.2012 24.4678 82.2012 20.3423H62.2012ZM63.667 16.8839C64.5679 16.0122 65.7428 15.5332 67.0103 15.5332V35.5332C70.9407 35.5332 74.7508 33.9891 77.5746 31.2568L63.667 16.8839ZM37.5623 18.7284L61.7704 30.8325L70.7147 12.9439L46.5065 0.839829L37.5623 18.7284ZM61.7333 30.8138C66.388 33.1654 71.7168 32.0679 75.1255 28.8172L61.3228 14.3436C63.6871 12.0889 67.4251 11.2819 70.7519 12.9626L61.7333 30.8138ZM75.1889 28.7562C76.756 27.2352 78.7429 24.3991 78.7429 20.3423H58.7429C58.7429 17.5028 60.1627 15.4691 61.2594 14.4046L75.1889 28.7562ZM78.7429 20.3423V13.2424H58.7429V20.3423H78.7429ZM72.6819 4.05089L50.732 -5.35572L42.854 13.0273L64.8039 22.4339L72.6819 4.05089ZM38.9843 -2.41114L34.2257 3.53715L49.8431 16.0311L54.6017 10.0828L38.9843 -2.41114Z" fill="black" mask="url(#path-5-inside-3_536_223)"/>
<mask id="path-7-inside-4_536_223" fill="white">
<path d="M18.5972 83C11.9227 83 6.49316 77.5704 6.49316 70.8959C6.49316 65.9747 9.4431 61.5792 14.0046 59.7048C14.8865 59.3451 15.8963 59.7636 16.2594 60.642C16.3736 60.9187 16.5119 61.1884 16.6848 61.4478C18.0059 63.4328 20.8313 64.0761 22.8821 62.8484L24.6804 61.7729C25.3306 61.3751 26.1675 61.4616 26.7347 61.9804C29.2558 64.2836 30.7048 67.5309 30.7048 70.8959C30.7013 77.5704 25.2718 83 18.5972 83ZM13.9666 63.5988C11.487 65.1655 9.95147 67.8906 9.95147 70.8924C9.95147 75.658 13.8317 79.5382 18.5972 79.5382C23.3628 79.5382 27.243 75.658 27.243 70.8924C27.243 68.8797 26.5514 66.988 25.2718 65.4456L24.6597 65.8122C21.1633 67.9114 16.3182 66.8842 13.9666 63.5988Z"/>
</mask>
<path d="M18.5972 83C11.9227 83 6.49316 77.5704 6.49316 70.8959C6.49316 65.9747 9.4431 61.5792 14.0046 59.7048C14.8865 59.3451 15.8963 59.7636 16.2594 60.642C16.3736 60.9187 16.5119 61.1884 16.6848 61.4478C18.0059 63.4328 20.8313 64.0761 22.8821 62.8484L24.6804 61.7729C25.3306 61.3751 26.1675 61.4616 26.7347 61.9804C29.2558 64.2836 30.7048 67.5309 30.7048 70.8959C30.7013 77.5704 25.2718 83 18.5972 83ZM13.9666 63.5988C11.487 65.1655 9.95147 67.8906 9.95147 70.8924C9.95147 75.658 13.8317 79.5382 18.5972 79.5382C23.3628 79.5382 27.243 75.658 27.243 70.8924C27.243 68.8797 26.5514 66.988 25.2718 65.4456L24.6597 65.8122C21.1633 67.9114 16.3182 66.8842 13.9666 63.5988Z" fill="black"/>
<path d="M14.0046 59.7048L10.2282 50.4453L10.216 50.4502L10.2038 50.4552L14.0046 59.7048ZM16.2594 60.642L25.5038 56.8287L25.5009 56.8217L16.2594 60.642ZM16.6848 61.4478L25.0098 55.9075L25.0053 55.9008L16.6848 61.4478ZM22.8821 62.8484L17.7493 54.2662L17.7457 54.2684L22.8821 62.8484ZM24.6804 61.7729L29.8132 70.3551L29.856 70.3295L29.8986 70.3034L24.6804 61.7729ZM26.7347 61.9804L19.9856 69.3594L19.9898 69.3632L26.7347 61.9804ZM30.7048 70.8959L40.7048 70.9011V70.8959H30.7048ZM13.9666 63.5988L22.0981 57.7784L16.6045 50.1035L8.62531 55.1448L13.9666 63.5988ZM25.2718 65.4456L32.9681 59.0607L27.492 52.4598L20.1339 56.8664L25.2718 65.4456ZM24.6597 65.8122L19.5218 57.233L19.5122 57.2387L24.6597 65.8122ZM18.5972 73C17.4456 73 16.4932 72.0476 16.4932 70.8959H-3.50684C-3.50684 83.0933 6.39987 93 18.5972 93V73ZM16.4932 70.8959C16.4932 70.0402 16.9846 69.2916 17.8054 68.9543L10.2038 50.4552C1.90157 53.8668 -3.50684 61.9092 -3.50684 70.8959H16.4932ZM17.781 68.9643C13.6044 70.6677 8.77336 68.7087 7.01793 64.4623L25.5009 56.8217C23.0193 50.8184 16.1686 48.0225 10.2282 50.4453L17.781 68.9643ZM7.01505 64.4553C7.34319 65.2508 7.77803 66.1154 8.3643 66.9948L25.0053 55.9008C25.2457 56.2614 25.4039 56.5865 25.5038 56.8287L7.01505 64.4553ZM8.35984 66.9881C12.631 73.4059 21.3777 75.404 28.0185 71.4284L17.7457 54.2684C19.1387 53.4344 20.5901 53.3442 21.7191 53.6C22.8463 53.8553 24.1128 54.5596 25.0098 55.9075L8.35984 66.9881ZM28.0149 71.4306L29.8132 70.3551L19.5476 53.1907L17.7493 54.2662L28.0149 71.4306ZM29.8986 70.3034C26.6719 72.2772 22.639 71.7863 19.9856 69.3594L33.4837 54.6013C29.696 51.137 23.9892 50.4731 19.4622 53.2423L29.8986 70.3034ZM19.9898 69.3632C20.4791 69.8102 20.7048 70.3962 20.7048 70.8959H40.7048C40.7048 64.6657 38.0324 58.7569 33.4795 54.5975L19.9898 69.3632ZM20.7048 70.8907C20.7042 72.0474 19.7479 73 18.5972 73V93C30.7956 93 40.6985 83.0934 40.7048 70.9011L20.7048 70.8907ZM8.62531 55.1448C3.27467 58.5253 -0.0485258 64.4256 -0.0485258 70.8924H19.9515C19.9515 71.3556 19.6993 71.8056 19.3078 72.0529L8.62531 55.1448ZM-0.0485258 70.8924C-0.0485258 81.1808 8.30885 89.5382 18.5972 89.5382V69.5382C19.3545 69.5382 19.9515 70.1351 19.9515 70.8924H-0.0485258ZM18.5972 89.5382C28.8856 89.5382 37.243 81.1808 37.243 70.8924H17.243C17.243 70.1351 17.84 69.5382 18.5972 69.5382V89.5382ZM37.243 70.8924C37.243 66.5221 35.7199 62.3778 32.9681 59.0607L17.5755 71.8304C17.4937 71.7319 17.4038 71.5878 17.337 71.4036C17.2699 71.2186 17.243 71.0398 17.243 70.8924H37.243ZM20.1339 56.8664L19.5218 57.233L29.7975 74.3913L30.4096 74.0248L20.1339 56.8664ZM19.5122 57.2387C20.1436 56.8597 20.669 56.8819 20.9254 56.9353C21.1766 56.9877 21.6647 57.1729 22.0981 57.7784L5.83503 69.4193C11.2072 76.9246 21.8249 79.1781 29.8071 74.3856L19.5122 57.2387Z" fill="black" mask="url(#path-7-inside-4_536_223)"/>
</g>
<defs>
<filter id="filter0_d_536_223" x="0" y="0" width="76.2012" height="90.9999" filterUnits="userSpaceOnUse" color-interpolation-filters="sRGB">
<feFlood flood-opacity="0" result="BackgroundImageFix"/>
<feColorMatrix in="SourceAlpha" type="matrix" values="0 0 0 0 0 0 0 0 0 0 0 0 0 0 0 0 0 0 127 0" result="hardAlpha"/>
<feOffset dy="4"/>
<feGaussianBlur stdDeviation="2"/>
<feComposite in2="hardAlpha" operator="out"/>
<feColorMatrix type="matrix" values="0 0 0 0 0 0 0 0 0 0 0 0 0 0 0 0 0 0 0.25 0"/>
<feBlend mode="normal" in2="BackgroundImageFix" result="effect1_dropShadow_536_223"/>
<feBlend mode="normal" in="SourceGraphic" in2="effect1_dropShadow_536_223" result="shape"/>
</filter>
</defs>
</svg>
