<svg width="19" height="18" viewBox="0 0 19 18" fill="none" xmlns="http://www.w3.org/2000/svg">
<path d="M14.0621 8.78636C14.4967 8.44552 14.5726 7.81693 14.2318 7.38236C13.891 6.94779 13.2624 6.87181 12.8278 7.21265L14.0621 8.78636ZM9.68842 10.9458L9.07127 11.7327C9.43362 12.0168 9.94321 12.0168 10.3056 11.7327L9.68842 10.9458ZM6.54902 7.21265C6.11446 6.87181 5.48587 6.94779 5.14503 7.38236C4.80419 7.81693 4.88018 8.44552 5.31474 8.78635L6.54902 7.21265ZM12.8278 7.21265L9.07127 10.1589L10.3056 11.7327L14.0621 8.78636L12.8278 7.21265ZM10.3056 10.1589L6.54902 7.21265L5.31474 8.78635L9.07127 11.7327L10.3056 10.1589ZM17 9C17 12.8097 13.7001 16 9.5 16V18C14.6887 18 19 14.0268 19 9H17ZM9.5 16C5.29989 16 2 12.8097 2 9H0C0 14.0268 4.31127 18 9.5 18V16ZM2 9C2 5.19026 5.29989 2 9.5 2V0C4.31127 0 0 3.97319 0 9H2ZM9.5 2C13.7001 2 17 5.19026 17 9H19C19 3.97319 14.6887 0 9.5 0V2Z" fill="black"/>
</svg>
