<svg width="21" height="21" viewBox="0 0 21 21" fill="none" xmlns="http://www.w3.org/2000/svg">
<path d="M15.5492 10.0801C15.9735 9.72657 16.0308 9.096 15.6773 8.67172C15.3237 8.24745 14.6932 8.19012 14.2689 8.54369L15.5492 10.0801ZM10.7106 12.8106L10.0704 13.5789C10.4412 13.8879 10.9799 13.8879 11.3508 13.5789L10.7106 12.8106ZM7.15229 8.54369C6.72801 8.19012 6.09745 8.24745 5.74388 8.67172C5.39032 9.096 5.44764 9.72656 5.87192 10.0801L7.15229 8.54369ZM14.2689 8.54369L10.0704 12.0424L11.3508 13.5789L15.5492 10.0801L14.2689 8.54369ZM11.3508 12.0424L7.15229 8.54369L5.87192 10.0801L10.0704 13.5789L11.3508 12.0424ZM19 10.5C19 15.1944 15.1944 19 10.5 19V21C16.299 21 21 16.299 21 10.5H19ZM10.5 19C5.80558 19 2 15.1944 2 10.5H0C0 16.299 4.70101 21 10.5 21V19ZM2 10.5C2 5.80558 5.80558 2 10.5 2V0C4.70101 0 0 4.70101 0 10.5H2ZM10.5 2C15.1944 2 19 5.80558 19 10.5H21C21 4.70101 16.299 0 10.5 0V2Z" fill="black"/>
</svg>
