<svg width="17" height="17" viewBox="0 0 17 17" fill="none" xmlns="http://www.w3.org/2000/svg">
<path d="M12.621 8.33025C13.0453 7.97669 13.1026 7.34613 12.7491 6.92185C12.3955 6.49757 11.7649 6.44025 11.3407 6.79381L12.621 8.33025ZM8.66625 10.3242L8.02606 11.0924C8.39691 11.4014 8.93559 11.4014 9.30643 11.0924L8.66625 10.3242ZM5.99185 6.79381C5.56757 6.44025 4.93701 6.49757 4.58344 6.92185C4.22988 7.34612 4.2872 7.97669 4.71148 8.33025L5.99185 6.79381ZM11.3407 6.79381L8.02606 9.55597L9.30643 11.0924L12.621 8.33025L11.3407 6.79381ZM9.30643 9.55597L5.99185 6.79381L4.71148 8.33025L8.02606 11.0924L9.30643 9.55597ZM15 8.5C15 12.0899 12.0899 15 8.5 15V17C13.1944 17 17 13.1944 17 8.5H15ZM8.5 15C4.91015 15 2 12.0899 2 8.5H0C0 13.1944 3.80558 17 8.5 17V15ZM2 8.5C2 4.91015 4.91015 2 8.5 2V0C3.80558 0 0 3.80558 0 8.5H2ZM8.5 2C12.0899 2 15 4.91015 15 8.5H17C17 3.80558 13.1944 0 8.5 0V2Z" fill="black"/>
</svg>
