<svg width="14" height="14" viewBox="0 0 14 14" fill="none" xmlns="http://www.w3.org/2000/svg">
<path d="M10.4249 7.01785C10.8491 6.66428 10.9065 6.03372 10.5529 5.60944C10.1993 5.18516 9.56876 5.12784 9.14448 5.4814L10.4249 7.01785ZM7.133 8.45935L6.49281 9.22757C6.86366 9.53661 7.40234 9.53661 7.77318 9.22757L7.133 8.45935ZM5.12151 5.4814C4.69724 5.12784 4.06667 5.18516 3.71311 5.60944C3.35954 6.03372 3.41687 6.66428 3.84115 7.01785L5.12151 5.4814ZM9.14448 5.4814L6.49281 7.69113L7.77318 9.22757L10.4249 7.01785L9.14448 5.4814ZM7.77318 7.69113L5.12151 5.4814L3.84115 7.01785L6.49281 9.22757L7.77318 7.69113ZM12 7C12 9.76142 9.76142 12 7 12V14C10.866 14 14 10.866 14 7H12ZM7 12C4.23858 12 2 9.76142 2 7H0C0 10.866 3.13401 14 7 14V12ZM2 7C2 4.23858 4.23858 2 7 2V0C3.13401 0 0 3.13401 0 7H2ZM7 2C9.76142 2 12 4.23858 12 7H14C14 3.13401 10.866 0 7 0V2Z" fill="black"/>
</svg>
