<svg width="15" height="15" viewBox="0 0 15 15" fill="none" xmlns="http://www.w3.org/2000/svg">
<path d="M11.1569 7.45532C11.5812 7.10175 11.6385 6.47119 11.2849 6.04691C10.9314 5.62263 10.3008 5.56531 9.87654 5.91887L11.1569 7.45532ZM7.64408 9.08096L7.0039 9.84918C7.37474 10.1582 7.91342 10.1582 8.28427 9.84918L7.64408 9.08096ZM5.41163 5.91887C4.98735 5.56531 4.35678 5.62263 4.00322 6.04691C3.64966 6.47119 3.70698 7.10175 4.13126 7.45532L5.41163 5.91887ZM9.87654 5.91887L7.0039 8.31274L8.28427 9.84918L11.1569 7.45532L9.87654 5.91887ZM8.28427 8.31274L5.41163 5.91887L4.13126 7.45532L7.0039 9.84918L8.28427 8.31274ZM13 7.5C13 10.5376 10.5376 13 7.5 13V15C11.6421 15 15 11.6421 15 7.5H13ZM7.5 13C4.46243 13 2 10.5376 2 7.5H0C0 11.6421 3.35786 15 7.5 15V13ZM2 7.5C2 4.46243 4.46243 2 7.5 2V0C3.35786 0 0 3.35786 0 7.5H2ZM7.5 2C10.5376 2 13 4.46243 13 7.5H15C15 3.35786 11.6421 0 7.5 0V2Z" fill="black"/>
</svg>
