<svg width="26" height="15" viewBox="0 0 26 15" fill="none" xmlns="http://www.w3.org/2000/svg">
<g clip-path="url(#clip0_303_464)">
<path d="M0 0H26V15H0V0Z" fill="#36B6CC"/>
<path d="M13 10.4956C14.9146 10.4956 16.4667 9.15246 16.4667 7.49561C16.4667 5.83875 14.9146 4.49561 13 4.49561C11.0854 4.49561 9.53333 5.83875 9.53333 7.49561C9.53333 9.15246 11.0854 10.4956 13 10.4956Z" fill="#FFD400"/>
<path d="M13 11.0307L11.586 12.8596L11.2261 10.6798L9.03667 11.7982L9.80704 9.70174L7.27293 9.88595L9.0164 8.28507L6.6394 7.4956L9.01133 6.70612L7.26786 5.10525L9.80197 5.28946L9.0316 3.19297L11.2211 4.307L11.5809 2.12718L12.995 3.95612L14.409 2.12718L14.7688 4.307L16.9583 3.19297L16.1879 5.28946L18.7221 5.10525L16.9837 6.71051L19.3556 7.4956L16.9837 8.28507L18.7271 9.88595L16.193 9.70174L16.9634 11.7982L14.7739 10.6842L14.4141 12.864C14.4141 12.8596 13 11.0307 13 11.0307ZM13 10.9956C15.2351 10.9956 17.0495 9.42542 17.0495 7.49121C17.0495 5.557 15.2351 3.99121 13 3.99121C10.7649 3.99121 8.95051 5.56139 8.95051 7.4956C8.95051 9.42981 10.7649 10.9956 13 10.9956ZM1.15558 1.24121C1.15558 1.10086 1.27722 0.991211 1.44447 0.991211H2.01718C2.17936 0.991211 2.30607 1.09647 2.30607 1.24121V1.73682C2.31113 1.87279 2.18443 1.98682 2.02225 1.98682H1.44447C1.28735 1.98682 1.15558 1.87718 1.15558 1.74121V1.24121ZM1.15558 3.2456C1.15558 3.10525 1.27722 2.9956 1.44447 2.9956H2.01718C2.17936 2.9956 2.30607 3.10086 2.30607 3.2456V3.74121C2.31113 3.87718 2.18443 3.99121 2.02225 3.99121H1.44447C1.28735 3.99121 1.15558 3.88156 1.15558 3.7456V3.2456ZM1.15558 5.2456C1.15558 5.10525 1.27722 4.9956 1.44447 4.9956H2.01718C2.17936 4.9956 2.30607 5.10086 2.30607 5.2456V5.74121C2.31113 5.87718 2.18443 5.99121 2.02225 5.99121H1.44447C1.28735 5.99121 1.15558 5.88156 1.15558 5.7456V5.2456ZM1.15558 7.2456C1.15558 7.10525 1.27722 6.9956 1.44447 6.9956H2.01718C2.17936 6.9956 2.30607 7.10086 2.30607 7.2456V7.74121C2.31113 7.87718 2.18443 7.99121 2.02225 7.99121H1.44447C1.28735 7.99121 1.15558 7.88156 1.15558 7.7456V7.2456ZM1.15558 9.24998C1.15558 9.10963 1.27722 8.99998 1.44447 8.99998H2.01718C2.17936 8.99998 2.30607 9.10525 2.30607 9.24998V9.7456C2.31113 9.88156 2.18443 9.9956 2.02225 9.9956H1.44447C1.28735 9.9956 1.15558 9.88595 1.15558 9.74998V9.24998ZM1.15558 11.25C1.15558 11.1096 1.27722 11 1.44447 11H2.01718C2.17936 11 2.30607 11.1052 2.30607 11.25V11.7456C2.31113 11.8816 2.18443 11.9956 2.02225 11.9956H1.44447C1.28735 11.9956 1.15558 11.8859 1.15558 11.75V11.25ZM1.15558 13.25C1.15558 13.1096 1.27722 13 1.44447 13H2.01718C2.17936 13 2.30607 13.1052 2.30607 13.25V13.7456C2.31113 13.8816 2.18443 13.9956 2.02225 13.9956H1.44447C1.28735 13.9956 1.15558 13.8859 1.15558 13.75V13.25ZM2.31113 12.25C2.31113 12.1096 2.43277 12 2.60002 12H3.17273C3.33492 12 3.46162 12.1052 3.46162 12.25V12.7456C3.46669 12.8816 3.33998 12.9956 3.1778 12.9956H2.60002C2.44291 12.9956 2.31113 12.8859 2.31113 12.75V12.25ZM2.31113 10.25C2.31113 10.1096 2.43277 9.99998 2.60002 9.99998H3.17273C3.33492 9.99998 3.46162 10.1052 3.46162 10.25V10.7456C3.46669 10.8816 3.33998 10.9956 3.1778 10.9956H2.60002C2.44291 10.9956 2.31113 10.8859 2.31113 10.75V10.25ZM2.31113 8.2456C2.31113 8.10525 2.43277 7.9956 2.60002 7.9956H3.17273C3.33492 7.9956 3.46162 8.10086 3.46162 8.2456V8.74121C3.46669 8.87718 3.33998 8.99121 3.1778 8.99121H2.60002C2.44291 8.99121 2.31113 8.88156 2.31113 8.7456V8.2456ZM2.31113 6.2456C2.31113 6.10525 2.43277 5.9956 2.60002 5.9956H3.17273C3.33492 5.9956 3.46162 6.10086 3.46162 6.2456V6.74121C3.46669 6.87718 3.33998 6.99121 3.1778 6.99121H2.60002C2.44291 6.99121 2.31113 6.88156 2.31113 6.7456V6.2456ZM2.31113 4.2456C2.31113 4.10525 2.43277 3.9956 2.60002 3.9956H3.17273C3.33492 3.9956 3.46162 4.10086 3.46162 4.2456V4.74121C3.46669 4.87718 3.33998 4.99121 3.1778 4.99121H2.60002C2.44291 4.99121 2.31113 4.88156 2.31113 4.7456V4.2456ZM2.31113 2.2456C2.31113 2.10525 2.43277 1.9956 2.60002 1.9956H3.17273C3.33492 1.9956 3.46162 2.10086 3.46162 2.2456V2.74121C3.46669 2.87718 3.33998 2.99121 3.1778 2.99121H2.60002C2.44291 2.99121 2.31113 2.88156 2.31113 2.7456V2.2456Z" fill="#FFD400"/>
</g>
<defs>
<clipPath id="clip0_303_464">
<rect width="26" height="15" fill="white"/>
</clipPath>
</defs>
</svg>
