<svg width="63" height="63" viewBox="0 0 63 63" fill="none" xmlns="http://www.w3.org/2000/svg">
<path d="M34.125 61.6875C33.789 61.6875 33.453 61.5589 33.1957 61.3043L4.32073 32.4293C3.80886 31.9174 3.80886 31.0853 4.32073 30.5734L33.1957 1.69837C33.7076 1.1865 34.5397 1.1865 35.0516 1.69837C35.5635 2.21025 35.5635 3.04237 35.0516 3.55425L7.10586 31.5L35.0516 59.4458C35.5635 59.9576 35.5635 60.7898 35.0516 61.3016C34.797 61.5589 34.461 61.6875 34.125 61.6875Z" fill="black"/>
<path d="M57.75 61.6875C57.414 61.6875 57.078 61.5589 56.8207 61.3043L27.9457 32.4293C27.4339 31.9174 27.4339 31.0853 27.9457 30.5734L56.8207 1.69837C57.3326 1.1865 58.1647 1.1865 58.6766 1.69837C59.1885 2.21025 59.1885 3.04237 58.6766 3.55425L30.7309 31.5L58.6766 59.4458C59.1885 59.9576 59.1885 60.7898 58.6766 61.3016C58.422 61.5589 58.086 61.6875 57.75 61.6875Z" fill="black"/>
</svg>
