<svg width="28" height="28" viewBox="0 0 28 28" fill="none" xmlns="http://www.w3.org/2000/svg">
<path d="M15.1667 27.4167C15.0173 27.4167 14.868 27.3595 14.7537 27.2464L1.92032 14.413C1.69282 14.1855 1.69282 13.8157 1.92032 13.5882L14.7537 0.754854C14.9812 0.527354 15.351 0.527354 15.5785 0.754854C15.806 0.982354 15.806 1.35219 15.5785 1.57969L3.15815 14L15.5785 26.4204C15.806 26.6479 15.806 27.0177 15.5785 27.2452C15.4653 27.3595 15.316 27.4167 15.1667 27.4167Z" fill="black"/>
<path d="M25.6667 27.4167C25.5173 27.4167 25.368 27.3595 25.2537 27.2464L12.4203 14.413C12.1928 14.1855 12.1928 13.8157 12.4203 13.5882L25.2537 0.754854C25.4812 0.527354 25.851 0.527354 26.0785 0.754854C26.306 0.982354 26.306 1.35219 26.0785 1.57969L13.6582 14L26.0785 26.4204C26.306 26.6479 26.306 27.0177 26.0785 27.2452C25.9653 27.3595 25.816 27.4167 25.6667 27.4167Z" fill="black"/>
</svg>
