<svg width="28" height="28" viewBox="0 0 28 28" fill="none" xmlns="http://www.w3.org/2000/svg">
<path d="M12.8334 27.4167C12.684 27.4167 12.5347 27.3595 12.4204 27.2464C12.1929 27.0189 12.1929 26.649 12.4204 26.4215L24.8419 14L12.4204 1.57969C12.1929 1.35219 12.1929 0.982354 12.4204 0.754854C12.6479 0.527354 13.0177 0.527354 13.2452 0.754854L26.0785 13.5882C26.306 13.8157 26.306 14.1855 26.0785 14.413L13.2452 27.2464C13.132 27.3595 12.9827 27.4167 12.8334 27.4167Z" fill="black"/>
<path d="M2.33332 27.4167C2.18399 27.4167 2.03465 27.3595 1.92032 27.2464C1.69282 27.0189 1.69282 26.649 1.92032 26.4215L14.3418 14L1.92032 1.57969C1.69282 1.35219 1.69282 0.982354 1.92032 0.754854C2.14782 0.527354 2.51765 0.527354 2.74515 0.754854L15.5785 13.5882C15.806 13.8157 15.806 14.1855 15.5785 14.413L2.74515 27.2464C2.63199 27.3595 2.48265 27.4167 2.33332 27.4167Z" fill="black"/>
</svg>
