<svg width="63" height="63" viewBox="0 0 63 63" fill="none" xmlns="http://www.w3.org/2000/svg">
<path d="M28.875 61.6875C28.539 61.6875 28.203 61.5589 27.9458 61.3043C27.4339 60.7924 27.4339 59.9603 27.9458 59.4484L55.8942 31.5L27.9458 3.55425C27.4339 3.04237 27.4339 2.21025 27.9458 1.69837C28.4577 1.1865 29.2898 1.1865 29.8017 1.69837L58.6767 30.5734C59.1885 31.0853 59.1885 31.9174 58.6767 32.4293L29.8017 61.3043C29.547 61.5589 29.211 61.6875 28.875 61.6875Z" fill="black"/>
<path d="M5.25005 61.6875C4.91405 61.6875 4.57805 61.5589 4.3208 61.3043C3.80892 60.7924 3.80892 59.9603 4.3208 59.4484L32.2692 31.5L4.3208 3.55425C3.80892 3.04237 3.80892 2.21025 4.3208 1.69837C4.83267 1.1865 5.6648 1.1865 6.17667 1.69837L35.0517 30.5734C35.5635 31.0853 35.5635 31.9174 35.0517 32.4293L6.17667 61.3043C5.92205 61.5589 5.58605 61.6875 5.25005 61.6875Z" fill="black"/>
</svg>
