<svg width="26" height="15" viewBox="0 0 26 15" fill="none" xmlns="http://www.w3.org/2000/svg">
<g clip-path="url(#clip0_303_415)">
<path d="M0 0H26V15H0V0Z" fill="white"/>
<path d="M0 0H26V1.15351H0V0ZM0 2.30702H26V3.46053H0V2.30702ZM0 4.61404H26V5.76754H0V4.61404ZM0 6.92105H26V8.07456H0V6.92105ZM0 9.23246H26V10.386H0V9.23246ZM0 11.5395H26V12.693H0V11.5395ZM0 13.8465H26V15H0V13.8465Z" fill="#D80027"/>
<path d="M0 0H13V8.07456H0V0Z" fill="#2E52B2"/>
<path d="M2.42262 6.09212L2.21989 5.53071L1.99689 6.09212H1.32788L1.87018 6.42984L1.66745 6.99124L2.21989 6.64475L2.75712 6.99124L2.54932 6.42984L3.10176 6.09212H2.42262ZM5.27603 6.09212L5.06823 5.53071L4.85537 6.09212H4.18636L4.72866 6.42984L4.52593 6.99124L5.06823 6.64475L5.6156 6.99124L5.41287 6.42984L5.95517 6.09212H5.27603ZM8.13958 6.09212L7.92164 5.53071L7.71891 6.09212H7.0347L7.59221 6.42984L7.37934 6.99124L7.92164 6.64475L8.47915 6.99124L8.26628 6.42984L8.80858 6.09212H8.13958ZM10.9879 6.09212L10.7852 5.53071L10.5723 6.09212H9.89825L10.4456 6.42984L10.2429 6.99124L10.7852 6.64475L11.3326 6.99124L11.1146 6.42984L11.6721 6.09212H10.9879ZM5.06823 3.30264L4.85537 3.86405H4.18636L4.72866 4.21054L4.52593 4.76317L5.06823 4.42106L5.6156 4.76317L5.41287 4.21054L5.95517 3.86405H5.27603L5.06823 3.30264ZM2.21989 3.30264L1.99689 3.86405H1.32788L1.87018 4.21054L1.66745 4.76317L2.21989 4.42106L2.75712 4.76317L2.54932 4.21054L3.10176 3.86405H2.42262L2.21989 3.30264ZM7.92164 3.30264L7.71891 3.86405H7.0347L7.59221 4.21054L7.37934 4.76317L7.92164 4.42106L8.47915 4.76317L8.26628 4.21054L8.80858 3.86405H8.13958L7.92164 3.30264ZM10.7852 3.30264L10.5723 3.86405H9.89825L10.4456 4.21054L10.2429 4.76317L10.7852 4.42106L11.3326 4.76317L11.1146 4.21054L11.6721 3.86405H10.9879L10.7852 3.30264ZM2.21989 1.08334L1.99689 1.63598H1.32788L1.87018 1.98247L1.66745 2.53948L2.21989 2.19299L2.75712 2.53948L2.54932 1.98247L3.10176 1.63598H2.42262L2.21989 1.08334ZM5.06823 1.08334L4.85537 1.63598H4.18636L4.72866 1.98247L4.52593 2.53948L5.06823 2.19299L5.6156 2.53948L5.41287 1.98247L5.95517 1.63598H5.27603L5.06823 1.08334ZM7.92164 1.08334L7.71891 1.63598H7.0347L7.59221 1.98247L7.37934 2.53948L7.92164 2.19299L8.47915 2.53948L8.26628 1.98247L8.80858 1.63598H8.13958L7.92164 1.08334ZM10.7852 1.08334L10.5723 1.63598H9.89825L10.4456 1.98247L10.2429 2.53948L10.7852 2.19299L11.3326 2.53948L11.1146 1.98247L11.6721 1.63598H10.9879L10.7852 1.08334Z" fill="white"/>
</g>
<defs>
<clipPath id="clip0_303_415">
<rect width="26" height="15" fill="white"/>
</clipPath>
</defs>
</svg>
