<svg width="15" height="23" viewBox="0 0 15 23" fill="none" xmlns="http://www.w3.org/2000/svg">
<path d="M13.7327 22.455C13.4061 22.455 13.1411 22.201 13.1411 21.8881V3.31514C12.0762 3.93087 10.4505 4.18714 8.94428 4.42641C7.10795 4.71556 5.03616 5.04441 4.86933 5.89941L8.34558 12.5625C8.43787 12.7382 8.42722 12.9469 8.31955 13.1136C8.21188 13.2803 8.02138 13.3835 7.81669 13.3835H0.717469C0.512775 13.3835 0.322279 13.2814 0.214608 13.1147C0.106936 12.948 0.0962872 12.7382 0.188577 12.5636L3.68139 5.86992C3.808 4.08962 6.31994 3.69274 8.7526 3.3072C10.9096 2.96588 13.1411 2.61209 13.1411 1.47701C13.1411 1.16404 13.4061 0.910034 13.7327 0.910034C14.0593 0.910034 14.3243 1.16404 14.3243 1.47701V21.8881C14.3243 22.201 14.0593 22.455 13.7327 22.455ZM1.67468 12.2495H6.85948L4.26708 7.28055L1.67468 12.2495Z" fill="black"/>
</svg>
