<svg width="15" height="14" viewBox="0 0 15 14" fill="none" xmlns="http://www.w3.org/2000/svg">
<path d="M13.748 13.3835H6.64873C6.44404 13.3835 6.25354 13.2814 6.14587 13.1147C6.0382 12.948 6.02755 12.7382 6.11984 12.5636L9.59609 5.89941C9.42926 5.04327 7.35747 4.71556 5.52114 4.42527C2.99973 4.02726 0.141113 3.57481 0.141113 1.47701C0.141113 1.16404 0.406151 0.910034 0.732715 0.910034C1.05928 0.910034 1.32432 1.16404 1.32432 1.47701C1.32432 2.61209 3.55584 2.96588 5.714 3.3072C8.14548 3.69161 10.6574 4.08849 10.7852 5.86992L14.278 12.5636C14.3703 12.7394 14.3597 12.948 14.252 13.1147C14.1443 13.2814 13.9526 13.3835 13.748 13.3835ZM7.60594 12.2495H12.7907L10.1983 7.28055L7.60594 12.2495Z" fill="black"/>
</svg>
